<svg xmlns="http://www.w3.org/2000/svg" xmlns:xlink="http://www.w3.org/1999/xlink" width="265" height="235" viewBox="0 0 265 235">
  <defs>
    <clipPath id="clip-path">
      <rect id="Rectangle_3240" data-name="Rectangle 3240" width="265" height="235" fill="none"/>
    </clipPath>
    <clipPath id="clip-path-3">
      <rect id="Rectangle_3238" data-name="Rectangle 3238" width="76.6" height="64.4" transform="translate(45.3 98.4)" fill="none"/>
    </clipPath>
  </defs>
  <g id="introimage_a_dark" clip-path="url(#clip-path)">
    <g id="Group_17678">
      <g id="Group_17677">
        <g id="Group_17957" data-name="Group 17957" clip-path="url(#clip-path)">
          <g id="Group_17676">
            <g id="Group_17675" opacity="0.5">
              <g id="Group_17674">
                <g id="Group_17956" data-name="Group 17956" clip-path="url(#clip-path-3)">
                  <g id="Group_17673">
                    <path id="Path_16263" d="M45.3,149.6,48,129.2l2.3-19.5s-.2-5.9,4-7.5,12.1-3.8,12.1-3.8l2.1,3.4,2.6,4.4,4.3,4.1h1.8l3.2-3.2,2.7-5.1.9-2.2h.8l9.8,2.1,3.8.9s2.2,0,2.4,1.6,1.5,3.6,1.5,4.6.4,6,.3,6.2.9,4.6.9,5.5a4.1,4.1,0,0,0,.7,2.2l1.6.4,2.8-1.8,5.7-4.6s.9.6.8,1.1,2.4,5,2.5,5.2,3.9,3.7,3.9,3.7.2,1.7,0,1.7-11.9,7.9-11.9,7.9L104,140l-4.8.8-2.4-.5,1.1,2.2,5.5,4.5s10.6,5.1,10.8,5.6,2.5.4,2.7,2.3,1.8,2.3-2.2,3.2-17.3,2.2-22.1,3.1a115.842,115.842,0,0,1-12.3,1.4c-3.4.3-11.3-.6-12.1-.6s-6.9-2.7-6.9-2.7-3.1-4-3.2-4.2-1.8-4.4-1.8-4.4v-1.9l-1.1,1.7-10.3-1.1.4.2Z" fill="#fc6e20"/>
                  </g>
                </g>
              </g>
            </g>
            <path id="Path_16264" d="M101.8,226.8l.6-7.8c-.2,3.1-7.3,0-8.2,1.8-.7,1.6,6.3,4.9,7.6,6Z" fill="#1c1c1c"/>
            <path id="Path_16265" d="M115.8,224.2a17.956,17.956,0,0,1-.9-6.5c0,.8-3.5,1.9-4.2,2.1-1,.3-3.7.2-4.1,1.1,2.8,1.5,6.1,2.2,9.1,3.3h0Z" fill="#1c1c1c"/>
            <path id="Path_16266" d="M62.3,128.2a6.812,6.812,0,0,1,.7-2.8,2.1,2.1,0,0,1,2.5-1,2.766,2.766,0,0,1,1.3,2c.6,3.1-.9,6.2-2.7,8.7s-3.9,5-4.9,8a93.678,93.678,0,0,1,3.7-16.5l-.6,1.5h0Z" fill="#1c1c1c"/>
            <path id="Path_16267" d="M112.5,26.4c-.3-2.7-.7-5.4-1-8.2-.3,1.8,0,3.6-.2,5.4a5.549,5.549,0,0,1-.6,2.2c.6.8-.4,1.9-.8,1.3a3.045,3.045,0,0,1-1.3.9,5.979,5.979,0,0,1-2.6.3c-3.7,0-7.4-.1-11-.2,0,0,.2.1.2.2h0l3.6.9h1a12.252,12.252,0,0,1,1.9.2c1.5.2,2.9.1,4.4.4,2.2,0,4.4.1,5.6.1s1-.4,1-1h0c0-.1-.3-2.4-.3-2.4h0Z" fill="#1c1c1c"/>
            <path id="Path_16268" d="M81.4,177.1l-34.5-.4c-3.6,0-7.2-.1-10.4-1.6s-5.9-4.8-5.4-8.4c0,3.3,2.7,6.1,5.8,7.2s6.5.9,9.8.8c12.1-.7,24.8-.5,37-1.2l-2.2,3.6h0Z" fill="#1c1c1c"/>
            <path id="Path_16269" d="M95.3,134.6c-.3-1.3-.8-2.9-2.1-3-2.6-.2-4.3,6.4,2.5,11.4,2.9,2.1,6.2,3.4,9.1,5.4-4.5-3.9-8-7.7-9.5-13.8h0Z" fill="#1c1c1c"/>
            <path id="Path_16270" d="M130.6,175H117a.773.773,0,0,1-.7-.8.684.684,0,0,1,.7-.7h13.6a6.3,6.3,0,1,0,0-12.6H118.4a.86.86,0,0,1-.8-.8.789.789,0,0,1,.8-.8h12.2a7.8,7.8,0,1,1,0,15.6h0Z" fill="#f4f4f4"/>
            <path id="Path_16271" d="M95.4,175H48.6a.961.961,0,0,1-.7-.9.684.684,0,0,1,.7-.7H95.4a.961.961,0,0,1,.8.9.736.736,0,0,1-.8.8h0Z" fill="#f4f4f4"/>
            <path id="Path_16272" d="M43.5,174.9H38.4a7.81,7.81,0,0,1-7.8-7.8c0-4.3,1.7-5.6,4.3-6.9h0a6.229,6.229,0,0,1,3.5-.8H57.6a.789.789,0,0,1,.8.8.736.736,0,0,1-.8.8H38.4a5.918,5.918,0,0,0-2.9.7,6.344,6.344,0,0,0,2.8,12h5.1a.789.789,0,0,1,.8.8.736.736,0,0,1-.8.8h0v-.4Z" fill="#f4f4f4"/>
            <path id="Path_16273" d="M68.1,97.4A42.373,42.373,0,0,1,70,82a5.671,5.671,0,0,1-2.1-2.5c-.6-1.6,0-4.3,1.7-4.5a3.891,3.891,0,0,1,2.3.7c6.2,3.2,12.6-2.2,15.1-4.6a.785.785,0,0,1,1.1,0,.355.355,0,0,0,.2.3c.7,1.9,2,3.6,2.1,5.9.2,5.4-1.9,13.3-6.8,15.4-2.4,1.1-6,.4-7.2-2.2a.738.738,0,1,1,1.3-.7h0c.8,1.8,3.4,2.3,5.2,1.5,1.7-.7,3.1-2.4,4.2-4.9a21.976,21.976,0,0,0,1.7-9.1c0-1.6-.9-2.9-1.6-4.4C77.8,81.6,71.1,77,71,77a2.01,2.01,0,0,0-1.3-.4c-.5,0-.2.2-.3.3a3.359,3.359,0,0,0-.2,2.2,4.513,4.513,0,0,0,2,2.1.67.67,0,0,1,.3.8c-1.6,5.7-2.4,9.4-2,15.4a.773.773,0,0,1-.7.8.849.849,0,0,1-.8-.7h.1Z" fill="#f4f4f4"/>
            <path id="Path_16274" d="M83,99.3a.752.752,0,0,1,.1-1.5h0c3.6.2,7.1-2.3,10.1-4.7a62.4,62.4,0,0,0-4.9-8.3.9.9,0,0,1,0-1.1c.2-.3.8-.2,1.1,0h0a63.512,63.512,0,0,1,5.3,9.1.765.765,0,0,1-.2.9c-3.4,2.7-7.2,5.6-11.6,5.4" fill="#f4f4f4"/>
            <path id="Path_16275" d="M71.8,85.2a.773.773,0,0,1,.8-.7.713.713,0,0,1,.7.8,2.741,2.741,0,0,0,.6,2c.2.2.4.3.6.2a.773.773,0,0,1,.7.8.684.684,0,0,1-.7.7h0c-1.9,0-2.8-1.8-2.8-3.7h.1Z" fill="#f4f4f4"/>
            <path id="Path_16276" d="M82.4,88.1a.706.706,0,0,1,0-1.1c.4-.4.7-.4,1,0h0a.778.778,0,0,0,.8.2c.4,0,.8,0,.9.5s0,.8-.5.9h0a2.337,2.337,0,0,1-2.1-.5h-.1Z" fill="#f4f4f4"/>
            <path id="Path_16277" d="M86.1,98a23.106,23.106,0,0,0,8.6-5.2A24.531,24.531,0,0,1,89,83.6c-.9,2.3-1.8,4.7-3.5,6.5a6.763,6.763,0,0,1-3.7,2,5.225,5.225,0,0,1-4-.9,33.023,33.023,0,0,0,1.9,4.3c3.3,6,4.5,3.1,6.4,2.5Z" fill="#f4f4f4"/>
            <path id="Path_16278" d="M53.4,74a.752.752,0,1,1,.1-1.5h0c4.9.4,5.9,0,9.1-3.2s.9-.8,1.3-1.2c1.1-1,4.1-3.2,7.1-2a.762.762,0,0,1-.6,1.4c-2.2-.9-4.8,1.1-5.5,1.7-.4.4-.9.8-1.3,1.2-3.5,3.4-5,4.1-10.3,3.6h0Z" fill="#f4f4f4"/>
            <path id="Path_16279" d="M103.9,123c-1.9-5.5-1.5-11.4-2.8-16.9a3.652,3.652,0,0,0-2.8-2.8l-13.6-3.2a19.428,19.428,0,0,1-7.6,11.2.6.6,0,0,1-.8,0c-4.6-2.6-8.1-8.4-9.8-13,0-.4,0-.8.4-1,.4,0,.8,0,1,.4,1.5,4,4.7,9.4,8.7,12a18.062,18.062,0,0,0,6.8-10.8.73.73,0,0,1,.9-.6h0l14.3,3.4a5.493,5.493,0,0,1,3.9,3.9c1.4,5.6,1,11.5,2.8,16.8,0,.3.5.5.8.4h.2c8.1-5.7,4.8-3.9,8.6-6.6a.721.721,0,1,1,.8,1.2,13.015,13.015,0,0,0-2.3,1.8A42.76,42.76,0,0,1,107,124a2.062,2.062,0,0,1-2.9-.5c0-.2-.2-.3-.3-.5h.1Z" fill="#f4f4f4"/>
            <path id="Path_16280" d="M32.4,161.8c2.2-3.7,7.6-7.7,11.4-9.2.5-2.1.9-4.4,1.2-6.6a.765.765,0,1,1,1.5.3c-.4,2.4-.8,4.8-1.3,7.1a.472.472,0,0,1-.5.5,27.784,27.784,0,0,0-8.8,5.9,19.814,19.814,0,0,1,6.4-.5.773.773,0,0,1,.7.8c0,.4-.3.6-.7.7h0a17.372,17.372,0,0,0-6.8.7,6.251,6.251,0,0,0-2,1.3c-.6.6-.8.2-1.1-.1a.608.608,0,0,1,0-.8h0Z" fill="#f4f4f4"/>
            <path id="Path_16281" d="M46.2,143.7a.689.689,0,0,1-.6-.9c1.8-12.4,2.3-23.9,4.7-36.6a.765.765,0,1,1,1.5.3h0c-2.4,12.5-2.9,24.2-4.7,36.5a.689.689,0,0,1-.9.6h0Z" fill="#f4f4f4"/>
            <path id="Path_16282" d="M52.2,103.7a.9.9,0,0,1,0-1.1,5.559,5.559,0,0,1,1.7-.9c4.2-1.5,9.7-3.9,13.2-4.1.4,0,.8.2.8.6s-.2.8-.6.8h0c-3.2.2-8.7,2.6-12.8,4a5.388,5.388,0,0,0-1.3.7.9.9,0,0,1-1.1,0h0Z" fill="#f4f4f4"/>
            <path id="Path_16283" d="M52.7,155.6a.775.775,0,0,1-.2-1h0c3.3-5,4.2-6.2,7.7-20,.6-2.3,1.2-4.7,2.3-8.5,0-.4.5-.6.9-.5a.715.715,0,0,1,.5.9h0c-2.1,7.3-2.3,8.9-4.1,15.2-1.8,6.4-2.5,8.1-6.1,13.7a.775.775,0,0,1-1,.2h0Z" fill="#f4f4f4"/>
            <path id="Path_16284" d="M76.6,163.3c-4.6-1.4-9.6.8-14.6-2.7-4.2-2.9-6.3-6.9-6.1-11.5a.773.773,0,0,1,.8-.7h0a.773.773,0,0,1,.7.8q-.3,6.3,5.4,10.2c4.5,3.1,9.2,1,14.1,2.4a7.393,7.393,0,0,0,3.3.2.765.765,0,0,1,.3,1.5h0a8.109,8.109,0,0,1-4.1-.2h.2Z" fill="#f4f4f4"/>
            <path id="Path_16285" d="M94,138a.9.9,0,0,1,0-1.1c.2-.3.8-.2,1.1,0h0a8.09,8.09,0,0,0,2.7,2.5c2.6,1.4,4.7.4,7.2-1a123.78,123.78,0,0,0,16.6-11.2.9.9,0,0,1,1.1,0c.3.2.2.8,0,1.1h0A143.931,143.931,0,0,1,106,139.6a11.186,11.186,0,0,1-5.3,1.8,7.813,7.813,0,0,1-6.6-3.8h0v.3Z" fill="#f4f4f4"/>
            <path id="Path_16286" d="M121.7,128.2c-.7-.8-2.6-2.8-3.3-3.4-1.9-1.7-3.3-5.5-3.7-7.6a.765.765,0,0,1,1.5-.3h0c.5,2.3,1.8,5.5,3.3,6.8.7.7,2.5,2.6,3.4,3.5s.3.8,0,1.1a.785.785,0,0,1-1.1,0h-.1Z" fill="#f4f4f4"/>
            <path id="Path_16287" d="M51.6,160.3a.623.623,0,0,1-.2-1,6.918,6.918,0,0,0,.8-4.2.765.765,0,1,1,1.5-.3h0a8.2,8.2,0,0,1-1,5.3.623.623,0,0,1-1,.2h0Z" fill="#f4f4f4"/>
            <path id="Path_16288" d="M117.4,157.4a.715.715,0,0,1-.5-.9h0c.6-2.4-9.4-6.1-13.5-8.8-3.7-2.4-4.5-3.1-7.1-7.1a.767.767,0,0,1,1.3-.8h0c2.4,3.7,3.1,4.3,6.6,6.6,4.9,3.2,15.2,6.3,14.1,10.4,0,.4-.5.6-.9.5h0Z" fill="#f4f4f4"/>
            <path id="Path_16289" d="M91.3,127l-.9-4.5a.765.765,0,0,1,1.5-.3l.9,4.5a.765.765,0,1,1-1.5.3" fill="#f4f4f4"/>
            <path id="Path_16290" d="M71.8,153.4a11.156,11.156,0,0,1-5.8-10,.752.752,0,0,1,1.5.1h0a9.756,9.756,0,0,0,5,8.6.762.762,0,1,1-.6,1.4h0Z" fill="#f4f4f4"/>
            <path id="Path_16291" d="M54.1,119.3a11.465,11.465,0,0,1,2-11.5.778.778,0,0,1,1.1,1.1h0a10.082,10.082,0,0,0-1.7,10,.762.762,0,1,1-1.4.6h0v-.2Z" fill="#f4f4f4"/>
            <path id="Path_16292" d="M92.6,139.6a.773.773,0,0,1-.7-.8h0a4.914,4.914,0,0,1,3.2-4,.715.715,0,0,1,.9.5.653.653,0,0,1-.5.9,3.26,3.26,0,0,0-2.2,2.7.773.773,0,0,1-.8.7h0Z" fill="#f4f4f4"/>
            <path id="Path_16293" d="M105.7,168.6h0a.773.773,0,0,1-.7-.8,14.873,14.873,0,0,0-.5-3.6,18.251,18.251,0,0,1-.5-4c0-1.3.4-.7.8-.7h0a.773.773,0,0,1,.7.8,14.873,14.873,0,0,0,.5,3.6,18.251,18.251,0,0,1,.5,4c0,1.3-.3.7-.8.7Z" fill="#f4f4f4"/>
            <path id="Path_16294" d="M95.9,234.7h-.8c-1.6,0-3.1,0-4.6-.1a.669.669,0,0,1-.7-.6c-.7-4.7,0-11.3,0-14.1s.3-.7.8-.7h0a.713.713,0,0,1,.7.8h0c0,2.5-.6,8.9,0,13.2,2.6.1,4.1.1,4.8.1s.8.3.8.8a.736.736,0,0,1-.8.8h0l-.2-.2Z" fill="#f4f4f4"/>
            <path id="Path_16295" d="M98.8,234.8a.773.773,0,0,1-.7-.8c0-.4.3-.6.7-.7a116.914,116.914,0,0,0,14.5,0,1.606,1.606,0,0,0,1.1-.5c0-.1.2-.3,0-.5a2.106,2.106,0,0,0-.5-1.3,7.213,7.213,0,0,0-2.4-1.9,15.863,15.863,0,0,0-4.1-1.6,14.581,14.581,0,0,0-5.1-.6c-.4,0-.8-.2-.8-.6h0v-2.8c0-1.4-.2-2.9-.2-3.5s.4-.7.8-.7a.684.684,0,0,1,.7.7c0,.8.2,4.5.3,5.4a15.943,15.943,0,0,1,4.8.7,17.652,17.652,0,0,1,4.5,1.8c1.9,1.1,3.3,2.2,3.6,4.3a2.554,2.554,0,0,1-2.3,2.7h-.3a142.2,142.2,0,0,1-14.6,0h0Z" fill="#f4f4f4"/>
            <path id="Path_16296" d="M114.8,234.3a.752.752,0,0,1,.1-1.5c3.7.3,7.9,0,11.7.1h.2a.789.789,0,0,0,.8-.8h0a2.251,2.251,0,0,0-1.4-2.2,36.287,36.287,0,0,0-10.2-3,.645.645,0,0,1-.6-.6c0-.7-.2-1.4-.2-2.1v-1.1c0-.4.2-.8.6-.8s.8.2.8.6h0v2.7a41.791,41.791,0,0,1,10.4,3.2c2.8,1.6,2.6,5.7-.6,5.7s-8,.2-11.8-.1h0Z" fill="#f4f4f4"/>
            <path id="Path_16297" d="M104.5,226.1v-6.5a.752.752,0,0,1,1.5-.1V226a.752.752,0,1,1-1.5.1Z" fill="#f4f4f4"/>
            <path id="Path_16298" d="M123.5,231.7a8.47,8.47,0,0,0-3.4-1.4.765.765,0,0,1,.3-1.5,11.31,11.31,0,0,1,3.9,1.7.885.885,0,0,1,.2,1.1.775.775,0,0,1-1,.2h0Z" fill="#f4f4f4"/>
            <path id="Path_16299" d="M119,160.2a15.17,15.17,0,0,0-.3-2.1c-.3-.8-.2-2.3-1.2-2.5-.8-.2-2.3.7-3.1.9a9.26,9.26,0,0,1-3.7.2c-7.8-.3-13.6,2.8-28.5,4.5-5,.6-10.9-.2-15.2.5,2.1,2.4,7.4,3,9.8,3.6h0a3.871,3.871,0,0,1,2.9,3c2,12.3,4.1,28.8,6.9,42.5l2.3-.6c.3,0,.5,0,.6.3a.419.419,0,0,1-.3.6l-2.3.7c.6,2.8,1.2,5.4,1.8,7.9a2.013,2.013,0,0,0,1.9,1.5,85.224,85.224,0,0,0,25.2-1.6,17.505,17.505,0,0,0,.4-3.2c.9-6.7,1.6-12.9,2.1-19.7.5-7,.8-20.2,1.2-27.2a40.614,40.614,0,0,0-.5-9.2h-.1Zm-15.6,57.7a.472.472,0,0,1-.5-.5c-.9-14.6-2.3-35.7-4.2-50.4a.51.51,0,0,1,1-.2c1.9,14.7,3.3,35.8,4.2,50.5a.472.472,0,0,1-.5.5h0Zm11.3-3a2.585,2.585,0,0,1-1.9,1.3.548.548,0,0,1-.6-.4c0-.3,0-.5.4-.6a1.23,1.23,0,0,0,1.1-.7c.2-.4.4-.3.7-.2a.481.481,0,0,1,.2.6h.1Z" fill="#f4f4f4"/>
            <path id="Path_16300" d="M87.6,65.2a11.058,11.058,0,0,0-10.3-2.4,5.5,5.5,0,0,0-4.2-6.6A5.583,5.583,0,0,0,66.6,60v.3a5.913,5.913,0,0,0,2.9,6.3c-4.4,2.9-4.9,8.7-8.7,11.5-1.9,1.4-4.4,1.9-6.4,3.5a10.23,10.23,0,0,0-3.5,6.3,24.181,24.181,0,0,0-.4,4.7,4.2,4.2,0,0,0,2.7,3.8,30.135,30.135,0,0,0,15.7,1.9.765.765,0,1,0-.3-1.5,41.844,41.844,0,0,1,2.3-15.3c-1.2-.9-1.9-1.3-2.3-2.7s0-3.1,1.4-3.2a4,4,0,0,1,2.6,1c2.4,1.4,6.1,1,8.6-.2a24.43,24.43,0,0,0,6.5-5.1c-.3.3.9,3.3,1.4,3.3h.4a5.34,5.34,0,0,1-.5,1.8c0,.4,0,.8.4,1,.4,0,.8,0,.9-.4a11.164,11.164,0,0,0-2.7-12M64.1,79.8a6.938,6.938,0,0,0-3.8,3.9,9.766,9.766,0,0,0-.6,2.3c-.4,1.7-.8,3.5-2.2,4.7a.495.495,0,0,1-.7-.7h0a5.5,5.5,0,0,0,1.6-3,24.905,24.905,0,0,1,.9-3.7,7.924,7.924,0,0,1,4.4-4.4c.3,0,.6,0,.7.2,0,.3,0,.6-.2.7h-.1Z" fill="#f4f4f4"/>
            <path id="Path_16301" d="M131.3,212.8h0a.789.789,0,0,1-.8-.8V177.8a.86.86,0,0,1,.8-.8.773.773,0,0,1,.8.7h0V212a.962.962,0,0,1-.9.8h0Z" fill="#f4f4f4"/>
            <path id="Path_16302" d="M38.1,227.6h0a.789.789,0,0,1-.8-.8h0V178.3a.86.86,0,0,1,.8-.8.773.773,0,0,1,.8.7h0v48.6a.882.882,0,0,1-.9.8h.1Z" fill="#f4f4f4"/>
            <path id="Path_16303" d="M84.6,229.1H54a.789.789,0,0,1-.8-.8.736.736,0,0,1,.8-.8H84.6a.789.789,0,0,1,.8.8.736.736,0,0,1-.8.8Z" fill="#f4f4f4"/>
            <path id="Path_16304" d="M62,167H41a.86.86,0,0,1-.8-.8.849.849,0,0,1,.7-.8h21a.86.86,0,0,1,.8.8.789.789,0,0,1-.8.8h0Z" fill="#f4f4f4"/>
            <path id="Path_16305" d="M49.4,199.5a.849.849,0,0,0-.8.7c0,1.3,0,4-.2,6.6a.773.773,0,0,0,.7.8h0a.773.773,0,0,0,.8-.7l.2-6.6a.773.773,0,0,0-.7-.8Z" fill="#f4f4f4"/>
            <path id="Path_16306" d="M55.9,200.2a.773.773,0,0,1-.7-.8h0l.2-2.9a.752.752,0,0,1,1.5-.1h0c0,.1-.2,3-.2,3a.773.773,0,0,1-.8.7h0Z" fill="#f4f4f4"/>
            <path id="Path_16307" d="M121.7,87a16.614,16.614,0,1,0,31.1,11.7A16.9,16.9,0,0,0,147,79.3c1.9,4.7,4.1,12.4,3.4,17.4a10.855,10.855,0,0,1-3.2,6.7c-3.1,2.8-7.7,3-11.8,2a18.508,18.508,0,0,1-10.8-7.1c-2.5-3.7-3.1-8.7-1-12.5A8.187,8.187,0,0,0,121,89l.5-2.1h.2Z" fill="#1c1c1c"/>
            <path id="Path_16308" d="M124.3,112.7a.693.693,0,0,1-.3-1h0c3-6,2.3-4.7,2.7-5.6a.738.738,0,1,1,1.3.7h0c-.4.8-1.3,2.6-1.6,3.4-.4.7-.7,1.4-1.1,2.1a.693.693,0,0,1-1,.3h0Z" fill="#f4f4f4"/>
            <path id="Path_16309" d="M127.3,116.2a.731.731,0,0,1-.4-1h0l1.6-3.6,1.8-3.8a.762.762,0,1,1,1.4.6h0l-1.8,3.8-1.6,3.6a.819.819,0,0,1-1,.4h0Z" fill="#f4f4f4"/>
            <path id="Path_16310" d="M121,124.2a2.583,2.583,0,0,1-1.2-3.1c.9-2.1,1.7-3.9,2.5-5.8a.762.762,0,1,1,1.4.6h0c-.8,1.8-1.6,3.6-2.5,5.7-.2.4.2,1,.7,1.2a1.907,1.907,0,0,0,1.3.2.664.664,0,0,0,.5-.4l1.8-3.9a.762.762,0,1,1,1.4.6h0l-1.8,4a2.1,2.1,0,0,1-1.7,1.3,3.1,3.1,0,0,1-2.3-.4H121Z" fill="#f4f4f4"/>
            <path id="Path_16311" d="M131.4,108.9c-3.3,0-6.3-3.3-5.8-6.3a.73.73,0,0,1,.9-.6.779.779,0,0,1,.6.9h0c-.3,1.6,1,3.3,2.4,4a3.452,3.452,0,0,0,4.1-.3.778.778,0,0,1,1.1,1.1h0a4.816,4.816,0,0,1-3.2,1.3h-.1Z" fill="#f4f4f4"/>
            <path id="Path_16312" d="M121.3,117.8c-.2-1.1.2-2.7,1.3-2.8a7.511,7.511,0,0,1,2.6.5c.5,0,1.5,0,1.6-.5,0-.4,0-.8-.4-1a3.766,3.766,0,0,0-1.5-.9c-1.4-.7-2.6-1.2-3.9-.4a7.1,7.1,0,0,0-1.4,1,15.45,15.45,0,0,0-1.9,2.4l-1.4,2a.706.706,0,0,1-1.1,0,.775.775,0,0,1-.2-1l1.4-2a13.948,13.948,0,0,1,2.1-2.7,6.385,6.385,0,0,1,3-1.7,7.481,7.481,0,0,1,3.9.9,6.151,6.151,0,0,1,1.9,1.2,2.833,2.833,0,0,1,.7,2.6,2.77,2.77,0,0,1-3.2,1.5c-.7,0-1.6-.5-2.2-.5,0,.4-.2.7,0,1.1a.875.875,0,0,1-.6.9.779.779,0,0,1-.9-.6h.2Z" fill="#f4f4f4"/>
            <path id="Path_16313" d="M122.5,128.5a.789.789,0,0,1-.8-.8c0-.5,0-.4.3-.6,2.8-2.4,9.3-7.2,9.8-8.6a.806.806,0,0,0-.3-.9h-.8a8.068,8.068,0,0,0-2.4,1.7c-.7.7-.3.5-.3.6h.1a.785.785,0,0,1,1.1,0,.668.668,0,0,1,0,1,1.485,1.485,0,0,1-2.2,0c-.6-.7-.3-.4-.4-.6a2.007,2.007,0,0,1,.6-2.2,10.148,10.148,0,0,1,2.7-1.9,2.463,2.463,0,0,1,2.2-.2,2.3,2.3,0,0,1,1.1,2.7,4.5,4.5,0,0,1-1.4,1.9,60.508,60.508,0,0,1-5.8,4.9c-1,.8-2,1.6-3,2.5,0,.1-.3.2-.5.2h0Z" fill="#f4f4f4"/>
            <path id="Path_16314" d="M126.5,120a1.9,1.9,0,0,1-1.9-1.9v-.3a4,4,0,0,1,1.4-2.2.721.721,0,1,1,.8,1.2,2.189,2.189,0,0,0-.8,1.4,1.23,1.23,0,0,0,.5.2,1.1,1.1,0,0,0,.9-.3.778.778,0,0,1,1.1,1.1h0a2.355,2.355,0,0,1-2.1.8h0Z" fill="#f4f4f4"/>
            <path id="Path_16315" d="M131.2,117.4a.769.769,0,0,1-.1-1,1.483,1.483,0,0,0-.1-.7,6.469,6.469,0,0,0-.8-.9.689.689,0,0,1-.6-.9v-.2c.1-.3-.1-1-.5-1.1a.73.73,0,0,1-.6-.9.779.779,0,0,1,.9-.6h0a2.494,2.494,0,0,1,1.7,2.4,5.706,5.706,0,0,1,1.3,1.4,2.36,2.36,0,0,1-.1,2.3.785.785,0,0,1-1.1,0h0v.2Z" fill="#f4f4f4"/>
            <path id="Path_16316" d="M125.9,116.7a.919.919,0,0,1,.2-1h0c.4-.3,3.2-2,3.7-2.3a.814.814,0,0,1,1.1.2.758.758,0,0,1-.1,1h0c-.4.3-3.2,2-3.7,2.3a.919.919,0,0,1-1-.2h-.2Z" fill="#f4f4f4"/>
            <path id="Path_16317" d="M123.4,112.2a.775.775,0,0,1-.2-1,6.09,6.09,0,0,1,2.2-2,.738.738,0,1,1,.7,1.3h0a4.281,4.281,0,0,0-1.6,1.4.775.775,0,0,1-1,.2h0Z" fill="#f4f4f4"/>
            <path id="Path_16318" d="M140.8,98.5a.789.789,0,0,1-.8-.8c0-.5.1-.5.4-.7a7.719,7.719,0,0,0,3.7-7.3.765.765,0,0,1,1.5-.3h0a9.2,9.2,0,0,1-4.4,8.8h-.4Z" fill="#f4f4f4"/>
            <path id="Path_16319" d="M144.1,88.2a.789.789,0,0,1-.8-.8h0a.8.8,0,1,1,1.6,0h0A.736.736,0,0,1,144.1,88.2Z" fill="#f4f4f4"/>
            <path id="Path_16320" d="M25.8,78.7a3.5,3.5,0,0,0,3-2.8,2.878,2.878,0,0,0-2.3-3.2,3.153,3.153,0,0,1-.4,4.4,3.451,3.451,0,0,1-3.4.3,3.194,3.194,0,0,0,3,1.2" fill="#1c1c1c"/>
            <path id="Path_16321" d="M40.4,76.9a3.581,3.581,0,0,0-1.7-4.2c1,.5-.2,2.8-.6,3.2-1,1-3.2,0-3.6,1.1-1,2.6,5,2.6,5.9,0h0Z" fill="#1c1c1c"/>
            <path id="Path_16322" d="M41.3,67.6c-.4,0-.6-.5-.5-.9h0c4.8-17.5,4.8-17.3,4.8-17.7a2.509,2.509,0,0,0-1.9-2.6H29.3c-14.8,0-.8-.3-.8-.8a.736.736,0,0,1,.8-.8H44a3.959,3.959,0,0,1,3.1,4.6v.7L42.3,67c0,.4-.5.6-.9.5h0Z" fill="#f4f4f4"/>
            <path id="Path_16323" d="M27,46.3H10.3a.789.789,0,0,1-.8-.8.736.736,0,0,1,.8-.8H27a.789.789,0,0,1,.8.8.736.736,0,0,1-.8.8" fill="#f4f4f4"/>
            <path id="Path_16324" d="M10.2,48.9,8.4,42.8a3,3,0,0,0-2.9-2.1H.8a.752.752,0,0,1-.1-1.5H5.5a4.411,4.411,0,0,1,4.3,3.2l1.8,6.1a.715.715,0,0,1-.5.9c-.4,0-.8,0-.9-.5h0Z" fill="#f4f4f4"/>
            <path id="Path_16325" d="M20.3,71.9a.789.789,0,0,1-.8-.8.736.736,0,0,1,.8-.8h0c1.8,0,11.5.2,13.9,0,2.5,0,3.9.2,5.7-.3.2,0,.8-.2,1.1-1.3v-.9c-.2-.3-.8-.4-1.8-.4l-22.5.3a.752.752,0,0,1-.7-.5L11,50.6a.715.715,0,0,1,.5-.9c.4,0,.8,0,.9.5l4.9,16,21.9-.3a4.462,4.462,0,0,1,3,.9,2.435,2.435,0,0,1,.4,2.2,2.879,2.879,0,0,1-2.2,2.4,11.985,11.985,0,0,1-3.8.3H20.4v.2Z" fill="#f4f4f4"/>
            <circle id="Ellipse_496" cx="2.8" cy="2.8" r="2.8" transform="translate(21.3 71.5)" fill="#f4f4f4"/>
            <path id="Path_16326" d="M24.1,77.9a3.6,3.6,0,1,1,3.6-3.6,3.585,3.585,0,0,1-3.6,3.6h0m0-5.6A2.112,2.112,0,0,0,22,74.4a2.1,2.1,0,0,0,4.2,0h0a2.112,2.112,0,0,0-2.1-2.1" fill="#f4f4f4"/>
            <path id="Path_16327" d="M39.2,74.4a2.8,2.8,0,0,1-2.8,2.8,2.8,2.8,0,0,1,0-5.6h0a2.8,2.8,0,0,1,2.8,2.8h0" fill="#f4f4f4"/>
            <path id="Path_16328" d="M36.4,78A3.6,3.6,0,1,1,40,74.4,3.585,3.585,0,0,1,36.4,78Zm0-5.6a2.112,2.112,0,0,0-2.1,2.1,2.1,2.1,0,1,0,4.2,0h0a2.112,2.112,0,0,0-2.1-2.1" fill="#f4f4f4"/>
            <path id="Path_16329" d="M44,53H13.6a.789.789,0,0,1-.8-.8.736.736,0,0,1,.8-.8H43.9a.789.789,0,0,1,.8.8.736.736,0,0,1-.8.8" fill="#f4f4f4"/>
            <path id="Path_16330" d="M42.1,60H16.6a.789.789,0,0,1-.8-.8.736.736,0,0,1,.8-.8H42.1a.789.789,0,0,1,.8.8.736.736,0,0,1-.8.8" fill="#f4f4f4"/>
            <path id="Path_16331" d="M23.8,65.9a.789.789,0,0,1-.8-.8V47.2a.752.752,0,0,1,1.5-.1h0V65a.789.789,0,0,1-.8.8" fill="#f4f4f4"/>
            <path id="Path_16332" d="M34.3,62.9a.789.789,0,0,1-.8-.8V47.7a.773.773,0,0,1,.8-.7.684.684,0,0,1,.7.7V62.1a.789.789,0,0,1-.8.8h0Z" fill="#f4f4f4"/>
            <path id="Path_16333" d="M44,47.3c.9,3.9,7.6,5.1,11.6,3a7.626,7.626,0,0,0,4-5.4A5.97,5.97,0,0,0,56.8,39a5,5,0,0,1,.7,5c-1.2,3.4-6,6.6-9.9,5.6-2.3-.6-4.2-2.8-3.9-5.1a9.613,9.613,0,0,0,2.2,5.4l-1.8-2.6h0Z" fill="#1c1c1c"/>
            <path id="Path_16334" d="M50.5,33.2a8.9,8.9,0,1,0,8.9,8.9,8.92,8.92,0,0,0-8.9-8.9h0m2.9,9.4H51v2.8a.789.789,0,0,1-.8.8.736.736,0,0,1-.8-.8V42.6H47a.789.789,0,0,1-.8-.8A.736.736,0,0,1,47,41h2.4V38a.773.773,0,0,1,.8-.7.684.684,0,0,1,.7.7v3h2.4a.789.789,0,0,1,.8.8.736.736,0,0,1-.8.8h0Z" fill="#fc6e20"/>
            <path id="Path_16335" d="M146,55.5a8.344,8.344,0,0,0,3.5,1l13.4,1.9L181.3,61a12.754,12.754,0,0,0,5.5,0,4.35,4.35,0,0,0,3.5-3.8,5.764,5.764,0,0,1-4.2,2.3,26.884,26.884,0,0,1-4.9-.3l-32.8-5.1a6.937,6.937,0,0,1-2.8-.8A2.806,2.806,0,0,1,144,51c.7,1.6.4,3.4,2.1,4.5h0Z" fill="#1c1c1c"/>
            <path id="Path_16336" d="M187.3,60.4h-.5L147,55.2a4.107,4.107,0,0,1-3.6-4.1V19.8a4.107,4.107,0,0,1,3.6-4.1l39.8-5.2a4.082,4.082,0,0,1,4.6,3.6h0V56.3a4.118,4.118,0,0,1-4.1,4.1Zm-.4-1.5a2.535,2.535,0,0,0,2.9-2.3V14.5a2.582,2.582,0,0,0-2.6-2.6h-.3l-39.8,5.2a2.678,2.678,0,0,0-2.3,2.6V51a2.678,2.678,0,0,0,2.3,2.6l39.8,5.2h0Z" fill="#f4f4f4"/>
            <path id="Path_16337" d="M176.9,48.7h-.2c-5.3-.4-11.8-.8-20-1.2a1.921,1.921,0,0,1-1.8-1.5c-1-4.1-1.7-7.7-2.4-11.3a.765.765,0,0,1,1.5-.3h0c.7,3.6,1.5,7.1,2.4,11.2,0,.2.2.3.4.3,8.2.4,14.7.8,20,1.2.2,0,.4,0,.5-.3.5-1.8,1.1-3.8,1.7-5.7.7-2.4,1.4-5,2.1-7.1a.728.728,0,1,1,1.4.4h0c-.7,2.1-1.4,4.6-2.1,7-.6,2-1.1,4-1.7,5.8a1.95,1.95,0,0,1-1.9,1.4h.1Z" fill="#f4f4f4"/>
            <path id="Path_16338" d="M150.9,35.1c-.1,0-.2-.3-.2-.5V30.8a.773.773,0,0,1,.7-.8h0l32.8-.3h0a.849.849,0,0,1,.8.7v3.8a.773.773,0,0,1-.7.8h0l-32.8.3c-.2,0-.4,0-.5-.2Zm1.2-3.6v2.3l31.3-.3V31.2Z" fill="#f4f4f4"/>
            <path id="Path_16339" d="M154.5,30.8a.785.785,0,0,1,0-1.1l9.8-9.8a.785.785,0,0,1,1.1,0,.668.668,0,0,1,0,1l-9.8,9.8a.785.785,0,0,1-1.1,0h0Z" fill="#f4f4f4"/>
            <path id="Path_16340" d="M180.5,30.8c-.2,0-.4,0-.5-.2L169.9,20.5a.785.785,0,0,1,0-1.1.668.668,0,0,1,1,0L181,29.5a.785.785,0,0,1,0,1.1.764.764,0,0,1-.5.2Z" fill="#f4f4f4"/>
            <path id="Path_16341" d="M156.1,29.7a.9.9,0,1,1-.9-.9.9.9,0,0,1,.9.9h0" fill="#f4f4f4"/>
            <path id="Path_16342" d="M155.2,31.4a1.685,1.685,0,0,1-1.7-1.7,1.7,1.7,0,1,1,1.7,1.7h0m-.1-1.7a.2.2,0,1,0,.4,0s-.3-.2-.3,0" fill="#f4f4f4"/>
            <rect id="Rectangle_3011" width="1.6" height="8.7" transform="translate(159.843 38.098) rotate(-1.5)" fill="#f4f4f4"/>
            <path id="Path_16343" d="M160.1,47.5a.849.849,0,0,1-.8-.7l-.2-8.7a.773.773,0,0,1,.7-.8h1.6a.849.849,0,0,1,.8.7l.2,8.7a.773.773,0,0,1-.7.8Zm.5-8.7.2,7.2h0l-.2-7.2Z" fill="#f4f4f4"/>
            <rect id="Rectangle_3012" width="1.6" height="9.4" transform="translate(166.536 37.923) rotate(-1.5)" fill="#f4f4f4"/>
            <path id="Path_16344" d="M166.8,48a.849.849,0,0,1-.8-.7l-.2-9.4a.773.773,0,0,1,.7-.8h1.6a.773.773,0,0,1,.8.7l.2,9.4a.773.773,0,0,1-.7.8h-1.6Zm.5-9.4.2,7.9h0l-.2-7.9Z" fill="#f4f4f4"/>
            <rect id="Rectangle_3013" width="1.6" height="9.7" transform="translate(172.926 37.655) rotate(-1.5)" fill="#f4f4f4"/>
            <path id="Path_16345" d="M173.2,48.2a.849.849,0,0,1-.8-.7l-.3-9.7a.773.773,0,0,1,.7-.8h1.6a.773.773,0,0,1,.8.7l.3,9.7a.773.773,0,0,1-.7.8Zm.5-9.7.2,8.2h0l-.2-8.2Z" fill="#f4f4f4"/>
            <path id="Path_16346" d="M166.9,109.8a21.975,21.975,0,0,0,8.3,2l32,3.9,29.4,3.6c3.5.4,7.1.8,10.5,0s6.5-3.6,6.9-7.1a5.006,5.006,0,0,1-3.6,3.3,14.122,14.122,0,0,1-5,.2L224.1,114c-16.4-1.3-31.9-3.6-48.3-4.8-2.7-.2-6.3.5-8.8-.6a7.435,7.435,0,0,1-4.6-6.2c0,1.6-.3,2.6.7,4.2a8.353,8.353,0,0,0,3.8,3.4h0Z" fill="#1c1c1c"/>
            <path id="Path_16347" d="M193.3,40.5a.789.789,0,0,1-.8-.8.773.773,0,0,1,.7-.8l57.6-2.7a.773.773,0,0,1,.7.8.684.684,0,0,1-.7.7l-57.6,2.7h.1Z" fill="#f4f4f4"/>
            <path id="Path_16348" d="M226.3,31.7a1.93,1.93,0,1,0,2.4,1.3,1.859,1.859,0,0,0-2.1-1.3h-.3Z" fill="#f4f4f4"/>
            <path id="Path_16349" d="M234.1,30.9a1.93,1.93,0,1,0,2.4,1.3,1.859,1.859,0,0,0-2.1-1.3h-.3Z" fill="#f4f4f4"/>
            <path id="Path_16350" d="M241.8,30.4a1.93,1.93,0,1,0,2.4,1.3,1.859,1.859,0,0,0-2.1-1.3h-.3Z" fill="#f4f4f4"/>
            <path id="Path_16351" d="M249.5,116.9h-.4l-6.6-.7a.752.752,0,0,1,.1-1.5h0l6.6.6h1.1a2.66,2.66,0,0,0,2-2.3h0V28.9a2.732,2.732,0,0,0-.8-1.9,3.5,3.5,0,0,0-2.2-.8h0c-15.9,1.6-10.4,1.1-11.6,1.2l-46.8,4.8a.752.752,0,0,1-.1-1.5l58.4-5.9h.1a4.884,4.884,0,0,1,3.3,1.1,4.157,4.157,0,0,1,1.3,3V113h0a4.174,4.174,0,0,1-3.1,3.7h0c-.4,0-.8.2-1.2.2h-.1Z" fill="#f4f4f4"/>
            <path id="Path_16352" d="M238.9,115.9h0l-69-6.8c-1.9,0-4.8-.5-6.4-2.4a7.558,7.558,0,0,1-1.8-6.3V77.6a.789.789,0,0,1,.8-.8.736.736,0,0,1,.8.8v22.8h0a6.476,6.476,0,0,0,1.5,5.2,7.151,7.151,0,0,0,5.2,1.9h.1l69.1,6.8a.773.773,0,0,1,.7.8.751.751,0,0,1-.7.7h-.3Z" fill="#f4f4f4"/>
            <path id="Path_16353" d="M162.3,73.3h0a.789.789,0,0,1-.8-.8h0V56.3a.789.789,0,0,1,.8-.8.736.736,0,0,1,.8.8V72.5A.789.789,0,0,1,162.3,73.3Z" fill="#f4f4f4"/>
            <path id="Path_16354" d="M196.4,30.8V27.1c5.1-1.1,8.2-1.8,13-2.7,0,1.9.1,3.7,0,5l-13.1,1.4h.1Z" fill="#f4f4f4"/>
            <path id="Path_16355" d="M196.4,31.5a.849.849,0,0,1-.8-.7V27.1a.618.618,0,0,1,.5-.8c5.2-1.1,8.4-1.8,13.1-2.7a.875.875,0,0,1,.9.6h0v5.2a.752.752,0,1,1-1.5.1h0V25.3c-4.1.8-7.2,1.5-11.6,2.4v3.1c0,.4-.2.8-.6.8h0Z" fill="#f4f4f4"/>
            <path id="Path_16356" d="M255.1,27.6a14.9,14.9,0,0,1,1.2,6.6c-.2,23.2,0,46.5.7,69.7,0,3.1.2,6.4-1.3,9.1s-5,4.7-7.8,3.3c2,.6,4.1-.9,5-2.8s.7-4.1.6-6.2c-1.6-23.2.3-46.3-.2-69.6,0-3.7,1.2-9.8-2.7-11.7a8.9,8.9,0,0,0-5.1-.5,14.365,14.365,0,0,1,5.4-.7,5.049,5.049,0,0,1,4.2,2.8h0Z" fill="#f4f4f4"/>
            <path id="Path_16357" d="M209.9,24l3.1,2.2c0,.9-.2,2-.2,2.8a28.5,28.5,0,0,0-2.9.3V24" fill="#f4f4f4"/>
            <path id="Path_16358" d="M237,104.1l-23-1.5a2.808,2.808,0,0,1-2.6-3,2.849,2.849,0,0,1,2.9-2.6l23,1.5a2.668,2.668,0,0,1,2.5,3,2.849,2.849,0,0,1-2.9,2.6" fill="#f4f4f4"/>
            <path id="Path_16359" d="M237.2,104.9H237l-23-1.5a3.553,3.553,0,0,1,.3-7.1h.1l23,1.5a3.364,3.364,0,0,1,3.3,3.7,3.546,3.546,0,0,1-3.6,3.4h0Zm-23-7a2.094,2.094,0,0,0-2,2.1,1.973,1.973,0,0,0,1.8,2l23,1.5a2.022,2.022,0,0,0,.6-4h-.3l-23-1.5h-.1Z" fill="#f4f4f4"/>
            <path id="Path_16360" d="M200.4,102.2l-23-1.5a2.808,2.808,0,0,1-2.6-3,2.849,2.849,0,0,1,2.9-2.6l23,1.4a2.8,2.8,0,0,1,2.7,2.9,2.738,2.738,0,0,1-2.9,2.7h-.1Z" fill="#f4f4f4"/>
            <path id="Path_16361" d="M200.6,103h-.2l-23-1.5a3.552,3.552,0,0,1-3.2-3.8,3.692,3.692,0,0,1,3.7-3.3l23,1.5a3.424,3.424,0,0,1,3.3,3.7,3.5,3.5,0,0,1-3.5,3.3h-.1Zm-23-7a2.094,2.094,0,0,0-2,2.1,1.973,1.973,0,0,0,1.8,2l23,1.5a2.006,2.006,0,0,0,2-2,1.973,1.973,0,0,0-1.8-2l-23-1.5h0Z" fill="#f4f4f4"/>
            <path id="Path_16362" d="M233.2,175.3c.4,1.6,2.1,2.5,3.7,2.9,4.3.9,7.7-1.6,8.1-4.7a4.543,4.543,0,0,0-2.1-4.5c1.4,1.7,1.1,4.7-1.9,6.8a6.426,6.426,0,0,1-5,1.2,3.707,3.707,0,0,1-2.9-3.9,7.718,7.718,0,0,0,1.6,4.1l-1.4-1.9h-.1Z" fill="#1c1c1c"/>
            <path id="Path_16363" d="M238.1,164.5a6.9,6.9,0,1,0,6.9,6.9,6.914,6.914,0,0,0-6.9-6.9Zm3.5,5.3-4,4a.483.483,0,0,1-.7,0h0l-1.9-1.9a.495.495,0,0,1,.7-.7l1.5,1.5,3.6-3.6a.495.495,0,0,1,.7.7h0Z" fill="#fc6e20"/>
            <path id="Path_16364" d="M264.2,34.8a.752.752,0,0,1-.7-.5,32.874,32.874,0,0,0-19-20.1.762.762,0,0,1,.6-1.4A34.892,34.892,0,0,1,265,33.9a.781.781,0,0,1-.5,1h-.3Z" fill="#f4f4f4"/>
            <path id="Path_16365" d="M264.2,23.6a.752.752,0,0,1-.7-.5,17.448,17.448,0,0,0-7-8.4.738.738,0,0,1,.7-1.3h0a19.015,19.015,0,0,1,7.6,9.2.731.731,0,0,1-.4,1h-.3Z" fill="#f4f4f4"/>
            <path id="Path_16366" d="M245.8,192.7a.785.785,0,0,1,0-1.1h0a39.942,39.942,0,0,0,10.7-30.5.773.773,0,0,1,.7-.8.848.848,0,0,1,.8.7,41.443,41.443,0,0,1-11.1,31.6.785.785,0,0,1-1.1,0h0Z" fill="#f4f4f4"/>
            <path id="Path_16367" d="M38.6,130.3a45.809,45.809,0,0,1-.4-35.6.762.762,0,1,1,1.4.6,44.853,44.853,0,0,0,.4,34.5.762.762,0,0,1-1.4.6h0Z" fill="#f4f4f4"/>
            <path id="Path_16368" d="M29.3,117.5a.752.752,0,0,1-.7-.5,26.092,26.092,0,0,1-.9-11.1.752.752,0,0,1,1.5.1h0a24.871,24.871,0,0,0,.8,10.5.715.715,0,0,1-.5.9h-.2Z" fill="#f4f4f4"/>
            <path id="Path_16369" d="M127.2,103.4h0a15.545,15.545,0,1,0-5.3-8.9,15.772,15.772,0,0,0,5.3,8.9m4.9-23.2A12.306,12.306,0,1,1,126,96.5a12.384,12.384,0,0,1,6.1-16.3h0" fill="#f4f4f4"/>
            <path id="Path_16370" d="M137.2,107.8a16.264,16.264,0,0,1-7.5-1.8,18.081,18.081,0,0,1-2.9-1.9h0a16.394,16.394,0,1,1,17.3,2.3,19.009,19.009,0,0,1-3.6,1.2,17.33,17.33,0,0,1-3.2.3h0Zm-9.5-5h0a15.1,15.1,0,0,0,2.6,1.8,14.922,14.922,0,1,0-6.6-7,14.535,14.535,0,0,0,4,5.2Zm9.5,1.7a13.05,13.05,0,1,1,13.1-13,12.656,12.656,0,0,1-11.7,12.9h-1.4m0-24.6a11.6,11.6,0,1,0,11.6,11.6c0-6.4-.4-3.3-1.1-4.8a11.655,11.655,0,0,0-10.5-6.8Z" fill="#f4f4f4"/>
            <path id="Path_16371" d="M203.8,90.4h0L175.6,89a.773.773,0,0,1-.7-.8V58.1a.789.789,0,0,1,.8-.8.736.736,0,0,1,.8.8V87.5l26.7,1.4V49.3l-12.4.6a.773.773,0,0,1-.7-.8.684.684,0,0,1,.7-.7l13.1-.7a.773.773,0,0,1,.8.7V89.6a.789.789,0,0,1-.8.8h-.1Z" fill="#f4f4f4"/>
            <path id="Path_16372" d="M239.9,91.9h0l-28.2-1.5a.773.773,0,0,1-.7-.8V50.2a.849.849,0,0,1,.7-.8l28.2-1.5a.773.773,0,0,1,.8.7h0V91a.789.789,0,0,1-.8.8h0ZM212.5,89l26.7,1.4V49.6L212.5,51Z" fill="#f4f4f4"/>
            <path id="Path_16373" d="M218.1,67.5v9.7a.849.849,0,0,0,.7.8h2c.4,0,.7-.2.7-.6h0V73.3l4.5,4.6a1.268,1.268,0,0,0,.9.4l6.9.3a1.332,1.332,0,0,0,1.4-1.2h0c0-3.3-3.5-3.7-6.2-5.5a2.012,2.012,0,0,1-.9-1.1c-.7-2-.9-2.2-.9-2.8V64.4a.684.684,0,0,0-.7-.7l-4.2-.2a.752.752,0,0,0-.7.5l-1,3.6-1-3.7c0-.3-.3-.5-.7-.5h-1.2c-.4,0-.7.2-.7.5v.2l.8,3.4h.3Z" fill="#fc6e20"/>
            <path id="Path_16374" d="M192.7,62.1h-.9a1.9,1.9,0,0,1-2.2,1.6,1.927,1.927,0,0,1-1.7-1.8h-1c.5,3.7,5.4,3.9,5.8.2h0Z" fill="#fc6e20"/>
            <path id="Path_16375" d="M181.8,68.8c.2.4.7.4,1.1.2h0l1.5-1.4V78.2a1.493,1.493,0,0,0,1.3,1.4l8.4.4a1.155,1.155,0,0,0,1.2-1.2h0V68.1l1.6,1.5a.785.785,0,0,0,1.1,0h0l1.3-1.6a1.22,1.22,0,0,0,0-1.3c-4.2-3.6-2.9-4-6.1-4.5-.4,4.2-6.2,4-6.7-.3-3.1.2-1.6.6-5.9,3.9a.817.817,0,0,0,0,1.2l1.3,1.7h-.1Z" fill="#fc6e20"/>
            <path id="Path_16376" d="M91.7,16.4a.967.967,0,0,0,1.4,0l1.7-1.7v13a1,1,0,0,0,1,1h14.8a1,1,0,0,0,1-1h0v-13l1.7,1.7a.967.967,0,0,0,1.4,0l2.7-2.6a.967.967,0,0,0,0-1.4h0L111.5,7a4.053,4.053,0,0,0-.9-.5l-3.4-.6h0l-3.6-1.1V3.9a2.051,2.051,0,0,0,1.6-2.4,2.018,2.018,0,0,0-4,.4c0,1,.2.4.4.4a.43.43,0,0,0,.4-.4,1.2,1.2,0,1,1,2.4,0,1.155,1.155,0,0,1-1.2,1.2h0a.43.43,0,0,0-.4.4V4.7L99.1,5.8h0l-3.3.4a1.193,1.193,0,0,0-.9.5L89,12.2a.967.967,0,0,0,0,1.4h0l2.7,2.6v.2ZM103.2,5.6l3.7,1.1a4.286,4.286,0,0,1-5.8,1.7,5.234,5.234,0,0,1-1.7-1.6l3.8-1.2Z" fill="#f4f4f4"/>
            <path id="Path_16377" d="M235.8,149.5a2.249,2.249,0,0,0-2.2-1.9h-2.1v-1.7a4.4,4.4,0,0,0-8.8,0v1.7h-2.1a2.174,2.174,0,0,0-2.2,1.9l-3,18.3a2.332,2.332,0,0,0,1.9,2.6h13.3a6.9,6.9,0,0,1,6.9-6.5h.7l-2.4-14.4h0Zm-12.5-3.6a3.8,3.8,0,0,1,7.6,0v1.7h-7.6v-1.7h0Zm8.7,13.2-1.7,1.7.4,2.4a1.084,1.084,0,0,1-.8,1.1h-.6l-2.2-1.1-2.2,1.1a.955.955,0,0,1-1.3-.4.637.637,0,0,1,0-.6l.4-2.4-1.7-1.7a.967.967,0,0,1,0-1.4c.4-.4.3-.2.5-.3l2.4-.3,1.1-2.2a.883.883,0,0,1,1.3-.4c.2,0,.4.3.4.4l1.1,2.2,2.4.3a.937.937,0,0,1,.8,1.1.864.864,0,0,1-.3.6h0Z" fill="#f4f4f4"/>
          </g>
        </g>
      </g>
    </g>
  </g>
</svg>
