<svg xmlns="http://www.w3.org/2000/svg" xmlns:xlink="http://www.w3.org/1999/xlink" width="265" height="235" viewBox="0 0 265 235">
  <defs>
    <clipPath id="clip-path">
      <rect id="Rectangle_3230" data-name="Rectangle 3230" width="265" height="235" fill="none"/>
    </clipPath>
    <clipPath id="clip-path-3">
      <rect id="Rectangle_3225" data-name="Rectangle 3225" width="70.8" height="76.8" transform="translate(25 102.7)" fill="none"/>
    </clipPath>
    <clipPath id="clip-path-4">
      <rect id="Rectangle_3227" data-name="Rectangle 3227" width="82.9" height="101" transform="translate(130.9)" fill="none"/>
    </clipPath>
    <clipPath id="clip-path-6">
      <rect id="Rectangle_3228" data-name="Rectangle 3228" width="31.8" height="31.8" transform="translate(227.3 69.5)" fill="none"/>
    </clipPath>
  </defs>
  <g id="introimage_b_dark" clip-path="url(#clip-path)">
    <g id="Group_17725">
      <g id="Group_17717">
        <g id="Group_17946" data-name="Group 17946" clip-path="url(#clip-path)">
          <g id="Group_17716">
            <g id="Group_17715" opacity="0.5">
              <g id="Group_17714">
                <g id="Group_17945" data-name="Group 17945" clip-path="url(#clip-path-3)">
                  <g id="Group_17713">
                    <path id="Path_16543" d="M25,153.5s.2-16.4,3-26.4S31.2,111,41.2,107s9.2-5.3,11.6-3.6,13,10.5,13,10.5,1.1-6.3,1.5-7.7,1.2-1.4,1.2-1.4a49.177,49.177,0,0,1,27.4,27.4l-12.4,15s3.2.7,2.6,1.6-5.1,8.3-5.1,8.3v7.3c.1,0,6.9,3.4,6.9,3.4l.8,6.4-47.2,5.4s-10.1-2.9-10.1-3.2S31,164,31,164l-1.6-11.5-4.3,1.2Z" fill="#fc6e20"/>
                  </g>
                </g>
              </g>
            </g>
            <path id="Path_16544" d="M29.4,152.3l19-5.4a36.483,36.483,0,0,1,.1,4.7,20.8,20.8,0,0,0,.7,5,3.642,3.642,0,0,0,3.4,1.3,40,40,0,0,0,8.2-2.9,53.954,53.954,0,0,1,7.6-2.9c1.8-.4,4.1-1.2,6.9,0s4.1,1.7,4.6,2.8.3,3,0,3-1.7,1.5-2.1,1.2-2,.6-2,.6-2.3.8-2.6.9a14.456,14.456,0,0,1-2.9,1.1c-.4,0-2.5-1.1-3.7-.6s-7.7,4.4-9.1,6.1-3.9,5.6-13.2,6.1-9.2,1.1-12-6a47.668,47.668,0,0,1-3.1-12.9v-2.1Z" fill="#fff"/>
            <path id="Path_16545" d="M228.6,42.5c.8,3.3,4.2,5.2,7.6,5.9a15.8,15.8,0,0,0,10.5-1.3,11.5,11.5,0,0,0,6.1-8.4,9.2,9.2,0,0,0-4.4-9.2,8.09,8.09,0,0,1,1.1,7.8,13.182,13.182,0,0,1-5.1,6.3c-3,2.1-6.8,3.3-10.3,2.5s-6.5-4.3-6.1-8a15.234,15.234,0,0,0,3.4,8.4Z" fill="#1c1c1c"/>
            <path id="Path_16546" d="M196,117.9c4.1.5,8.4.9,12.1-.9s6.1-6.8,3.8-10.2c2,2.7.1,6.8-2.9,8.3s-6.5,1.1-9.9.7l-31.9-3.9L151.4,110c-4.4-.5-10.8-.2-14.8-2.1,9.8,2.1,19.5,4.5,29.5,6,9.6,1.5,20,3.9,29.8,3.9" fill="#1c1c1c"/>
            <path id="Path_16547" d="M51.8,147.2h0a3.021,3.021,0,0,1,1,2.8,13.968,13.968,0,0,1-.9,2.9,6.146,6.146,0,0,0-.5,3,5.019,5.019,0,0,1,.2,1.2.856.856,0,0,1-.7.9,4.318,4.318,0,0,1-2.3-2.8,11.6,11.6,0,0,1-.3-3.7,8.888,8.888,0,0,0-.7-3.6,6.829,6.829,0,0,1,4.8-1.2c-.1,0-.6.4-.7.4" fill="#1c1c1c"/>
            <path id="Path_16548" d="M52.6,173c.2-.3.4-.7.6-1,0-.1-.1-.2-.2-.3-4.3,1-8.6,1.9-13,2.6a8.173,8.173,0,0,1-2.7.1,8.58,8.58,0,0,0,4.9,1.5,21.053,21.053,0,0,0,6.1-1c1.1-.3,2.2-.5,3.2-.8a5.241,5.241,0,0,0,1-1.1" fill="#1c1c1c"/>
            <path id="Path_16549" d="M86.3,148.5a.31.31,0,0,1,.1-.2c.2-.3.4-.5.6-.8,0-.1.2-.3.3-.4a4.032,4.032,0,0,1,.6-2.2,107.645,107.645,0,0,1,6.3-10.2,73.933,73.933,0,0,0-10.8,12.9c.3-.5,1.1-.3,1.4.2a1.689,1.689,0,0,1,1,.3c.2.1.3.2.5.3" fill="#1c1c1c"/>
            <path id="Path_16550" d="M74.8,107.7l-7.7-3.6a86.855,86.855,0,0,1-.5,8.9c1.1-.2,2.2-2.7,3.3-3.6.9-.7,3.6-2.3,4.9-1.7" fill="#1c1c1c"/>
            <path id="Path_16551" d="M75,42c.4,6.2.8,8.2,4.2,9.2,4.7,1.3,9.9.1,15-.4a118.824,118.824,0,0,0,15.7-2.3c3.7-.8,10.1-1.3,12.8-3.4s1.6-3.1,1-8.1c-.9,3.5-1.7,6.3-5.7,8.1-2.8,1.3-6.4.8-9.7,1L91.9,47.8c-3.9.2-8.1.4-11.3-1.2-3.9-2-3.9-14.1-4.9-17.8-.7,2.2-.8,4.1-.9,8" fill="#1c1c1c"/>
            <path id="Path_16552" d="M156.7,189.3a3.753,3.753,0,0,1,1.9-2.2c1.8-.6,3.5,1.8,5.4,1.4a10.837,10.837,0,0,0,1.9-.8c.7-.2,1.6,0,1.8.7s-.5,1.4-1.2,1.7a48.942,48.942,0,0,1-7.3,3.5,11.079,11.079,0,0,0-2.9,1.4,5.088,5.088,0,0,0-1.3,1.6c-1.1-1,1.1-6.2,1.6-7.4" fill="#1c1c1c"/>
            <path id="Path_16553" d="M152.7,176.2a18.678,18.678,0,0,0,1.1-4.8,7.739,7.739,0,0,0-1-4.7c-.9-1.4-2.6-2.4-2.9-4.1-.4-1.8.8-3.4,1.9-4.8.7-.9,1.8-2,2.9-1.6a2.648,2.648,0,0,1,1.5,1.9,13.2,13.2,0,0,1,.6,3.9,26.44,26.44,0,0,1-5.5,17.4l1.4-3.2Z" fill="#1c1c1c"/>
            <path id="Path_16554" d="M142.6,190.5c-1.3-2.5-3.6-6.8-6-8-2.6-1.3-5.9-.8-8.2-2.5a11.183,11.183,0,0,1-3-4.1c1.2.5,2.4-.4,3.4-1.4s2-2,3.3-1.7c1.8.4,2.3,3.3,4,3.7.9.2,1.9-.2,2.7.3.9.6.8,1.9.8,3.1-.1,3.8,1.3,7.5,2.8,11l.2-.4Z" fill="#1c1c1c"/>
            <path id="Path_16555" d="M238.7,21.1a13.5,13.5,0,1,0,13.5,13.5h0a13.507,13.507,0,0,0-13.5-13.5m6.8,10-8.2,8.2a.785.785,0,0,1-1.1,0l-3.8-3.8a.778.778,0,1,1,1.1-1.1l3.3,3.3,7.7-7.7a.778.778,0,1,1,1.1,1.1" fill="#f4f4f4"/>
            <path id="Path_16556" d="M241.4,68.6h-.1a16.08,16.08,0,0,0-5.2,1.4h0a16.961,16.961,0,0,0-8.3,22,.762.762,0,1,0,1.4-.6,15.455,15.455,0,0,1,7.5-20h0a14.132,14.132,0,0,1,6.4-1.3,16.475,16.475,0,0,1,3.2.4h0A14.936,14.936,0,0,1,257.4,84v1.6a14.473,14.473,0,0,1-1.1,5.4h0a15.615,15.615,0,0,1-4.4,6,1.439,1.439,0,0,0-.3.2,14.371,14.371,0,0,1-7.9,3.1v0h-1.4a18.588,18.588,0,0,1-3.3-.4,15.873,15.873,0,0,1-2-.7h0a14.527,14.527,0,0,1-6.2-5,.791.791,0,0,0-1.3.9h0a16.617,16.617,0,0,0,6.8,5.5h0a15.546,15.546,0,0,0,2.3.8,12.589,12.589,0,0,0,2.7.4,17.061,17.061,0,0,0,16.9-6.6,17.742,17.742,0,0,0,.5-19.4,16.61,16.61,0,0,0-17.4-7.3" fill="#f4f4f4"/>
            <path id="Path_16557" d="M236.7,93.3a.792.792,0,0,0,.1,1.1,8.261,8.261,0,0,0,4.5,1.9v1.4a.86.86,0,0,0,.8.8h0a.86.86,0,0,0,.8-.8h0V96.3a6.227,6.227,0,0,0,4.4-2.8,5.687,5.687,0,0,0,0-5.9,8.809,8.809,0,0,0-4.3-2.7c0-2.6.2-5.2.4-7.8h.6a3.115,3.115,0,0,1,1.8.7,1.75,1.75,0,0,1,.7,1.4.752.752,0,1,0,1.5.1,3.287,3.287,0,0,0-1.2-2.7,4.589,4.589,0,0,0-2.5-1h-.6c0-.9.2-1.9.2-3a.752.752,0,1,0-1.5-.1h0q-.15,1.8-.3,3.3a6.188,6.188,0,0,0-3.3,1.7,5.044,5.044,0,0,0-1,5.7,7.032,7.032,0,0,0,3.7,2.9c0,2.9-.1,5.9,0,8.8a7.343,7.343,0,0,1-3.5-1.5.792.792,0,0,0-1.1.1m9-5.1a3.8,3.8,0,0,1,0,4.1,5.134,5.134,0,0,1-3.1,2.1V86.5a6.179,6.179,0,0,1,3.1,2m-7-6.3a3.52,3.52,0,0,1,.7-3.9,3.6,3.6,0,0,1,2.1-1.1c-.2,2.3-.3,4.7-.4,7a5.2,5.2,0,0,1-2.4-2" fill="#f4f4f4"/>
            <path id="Path_16558" d="M258.4,36.7h0a.849.849,0,0,0,.8-.7,23.5,23.5,0,0,0-9.7-21.1.791.791,0,0,0-.9,1.3h0A22.131,22.131,0,0,1,257.7,36a.773.773,0,0,0,.7.8h0" fill="#f4f4f4"/>
            <path id="Path_16559" d="M259.3,15.4a.778.778,0,1,0-1.1,1.1,30.309,30.309,0,0,1,5.4,9.8.825.825,0,0,0,1,.5.715.715,0,0,0,.5-.9h0a30.58,30.58,0,0,0-5.7-10.3" fill="#f4f4f4"/>
            <path id="Path_16560" d="M206.7,116.9a4.4,4.4,0,0,0,1.6-.2,6.963,6.963,0,0,0,4.5-3.7,7.059,7.059,0,0,0,.6-2.8v-3.9a.8.8,0,0,0-1.6,0h0v3.9a5.143,5.143,0,0,1-5.1,5.2H206l-68.3-7.9a5.235,5.235,0,0,1-4.6-4.9c-.3-8.4-.3-16.9-.4-25.1V72.1a.789.789,0,0,0-.8-.8h0a.86.86,0,0,0-.8.8v5.4c0,8.2.1,16.7.4,25.1a6.5,6.5,0,0,0,5.9,6.4l68.3,7.9h.8" fill="#f4f4f4"/>
            <path id="Path_16561" d="M36.4,165.5a.71.71,0,0,0-.2,1.1h0l2.1,3.2a.885.885,0,0,0,1.1.2.775.775,0,0,0,.2-1l-2.1-3.2a.71.71,0,0,0-1.1-.2" fill="#f4f4f4"/>
            <path id="Path_16562" d="M54.3,156.9h-.5a3.868,3.868,0,0,1-2.6,0c-1.3-.5-1.7-2-1.7-3.4a14.769,14.769,0,0,0-.1-2.1c0-.6-.1-1.2-.1-1.8a.789.789,0,0,0-.8-.8h0a.709.709,0,0,0-.7.8,6.154,6.154,0,0,0,.2,1.9,10.819,10.819,0,0,1,0,1.8,5.512,5.512,0,0,0,1.2,3.9h0l-1.5,2.1a.913.913,0,0,0,.2,1.1.775.775,0,0,0,1-.2l1.5-2.1h0a.494.494,0,0,1,.3.1,3.887,3.887,0,0,0,1.5.2,5.537,5.537,0,0,0,1.8-.2h.2v-1.6" fill="#f4f4f4"/>
            <path id="Path_16563" d="M96.8,132a51.736,51.736,0,0,0-11.6-17.2.778.778,0,0,0-1.1,1.1,50.305,50.305,0,0,1,11.1,16.2,100.274,100.274,0,0,0-11.7,13.5c-.3-2.8-.7-5.6-1.1-8.5-.5-3.6-.9-7.3-1.4-10.7a.752.752,0,0,0-1.5.1h0c.4,3.4.9,7.1,1.4,10.7s.9,7.1,1.3,10.5a1.439,1.439,0,0,0-.3.2,4.1,4.1,0,0,1,1.1.1,6.3,6.3,0,0,1,3,.7V148a1.714,1.714,0,0,0-1.6-1.1,100.091,100.091,0,0,1,7.2-8.9h0a1.205,1.205,0,0,1,.5-.5l.2-.2a1.205,1.205,0,0,1,.5-.5h0a.31.31,0,0,1,.1-.2v-.1h0l.1-.1.1-.1c1.1-1.2,2.2-2.3,3.4-3.4a.959.959,0,0,0,.2-.9" fill="#f4f4f4"/>
            <path id="Path_16564" d="M104.4,188.5H89c.8,0,1-.2.9-.5,0-.1.1-.3.1-.4a64.9,64.9,0,0,0-1.3-19.3,2.934,2.934,0,0,1-1-.3c-.3-.1-.4-.2-.3-.1h-.3c.5,2,.9,4.1,1.2,6.1-9.3-1.1-18.9.7-28.2,1.9-9.2,1.2-19.6,3.1-27.8-1.1-.2-2.6-.4-5.2-.5-7.6.3,1,.7,2,1,2.9a7.889,7.889,0,0,0,3.3,4.3,7.306,7.306,0,0,0,3,.6,12.413,12.413,0,0,0,2.7-.3c3.1-.4,6.1-1,9.2-1.6a2.193,2.193,0,0,1,.7-1.7c-3.3.7-6.7,1.3-10.1,1.8a8.6,8.6,0,0,1-4.8-.2c-1.4-.6-2-2.1-2.5-3.5a78.07,78.07,0,0,1-2.6-8.2h0c0-.2,0-.3-.1-.4q-.9-3.9-1.5-7.8a140.459,140.459,0,0,1,24-6,.669.669,0,0,0,.6-.7c.2-1.5.3-2.9.4-4.4.1-1.4.2-2.9.4-4.3l.8.4a.731.731,0,0,0,1-.4.777.777,0,0,0-.3-1l-3.5-1.8a.731.731,0,0,0-1,.4.777.777,0,0,0,.3,1l1.4.7a.758.758,0,0,0-.2.4c-.2,1.5-.3,2.9-.4,4.4a23.255,23.255,0,0,1-.4,3.7,153.568,153.568,0,0,0-27.4,7.2,116.383,116.383,0,0,1,.8-14.5A.806.806,0,0,0,25,138a105.226,105.226,0,0,0-.8,15.8.86.86,0,0,0,.8.8h.2c1.1-.4,2.1-.8,3.2-1.1.4,2.7.9,5.3,1.5,7.9A191.466,191.466,0,0,0,32,187.6a.808.808,0,0,0,.9.7.55.55,0,0,0,.5-.3v.3H23.1a.666.666,0,0,0-.7.8.684.684,0,0,0,.7.7l38.3.2v-5.8a.5.5,0,0,1,1,0h0V190l41.9.2a.789.789,0,0,0,.8-.8.736.736,0,0,0-.8-.8m-18.5-4.3h0a1.812,1.812,0,0,1-1.2-2.2,1.952,1.952,0,0,1,.1-.7,2.161,2.161,0,0,0,.1-1.1,2.732,2.732,0,0,0-1.9-1.5.517.517,0,0,1-.3-.7h0a.517.517,0,0,1,.7-.3c.7.3,2.2.9,2.5,2.2a8.6,8.6,0,0,1-.1,1.6,1.268,1.268,0,0,1-.1.6c0,.4,0,1,.4,1.1a.441.441,0,0,1,.4.6c0,.3-.3.4-.6.4" fill="#f4f4f4"/>
            <path id="Path_16565" d="M70.7,90.1h-.4a.714.714,0,0,0-1-.3.87.87,0,0,0-.4.9,1.5,1.5,0,0,0,1,.9,2.588,2.588,0,0,0,1.9-.3,2.518,2.518,0,0,0,.9-2,24.388,24.388,0,0,0-.1-5.4.73.73,0,0,0-.9-.6.689.689,0,0,0-.6.9,16.77,16.77,0,0,1,.1,5q0,.75-.3.9" fill="#f4f4f4"/>
            <path id="Path_16566" d="M67.3,92.8a.9.9,0,0,0,0,1.1,4,4,0,0,0,2.6,1h.2a.752.752,0,0,0-.1-1.5h0a2.715,2.715,0,0,1-1.7-.6.9.9,0,0,0-1.1,0" fill="#f4f4f4"/>
            <path id="Path_16567" d="M94.2,134.7l1.9,4.9h0a1.486,1.486,0,0,1,.9.2h.6l-2.1-5.5a.791.791,0,0,0-1.5.5h0" fill="#f4f4f4"/>
            <path id="Path_16568" d="M80.2,8.7A21.918,21.918,0,0,0,67,19.9a.738.738,0,0,0,1.3.7h0A20.956,20.956,0,0,1,80.6,10.1a.825.825,0,0,0,.5-1,.715.715,0,0,0-.9-.5" fill="#f4f4f4"/>
            <path id="Path_16569" d="M72.8,5.7a19.884,19.884,0,0,0-6.9,6,.8.8,0,0,0,.2,1.1.814.814,0,0,0,1.1-.2,18.786,18.786,0,0,1,6.4-5.5.863.863,0,0,0,.4-1,.863.863,0,0,0-1-.4h0" fill="#f4f4f4"/>
            <path id="Path_16570" d="M0,62.2v6.7a3.6,3.6,0,0,0,3.3,3.6h0l21.5-.2,9.6,6.1a.913.913,0,0,0,1.1-.2c0-.1.1-.3.1-.4V72.1h1.7a3.118,3.118,0,0,0,2.1-.9,3.394,3.394,0,0,0,1-2.7V61.8A3.523,3.523,0,0,0,37,58.3h0l-33.9.4A3.439,3.439,0,0,0-.1,62.3M26,68.1H18.2c-.3.1-.5-.1-.5-.4a.472.472,0,0,1,.5-.5H26c.3,0,.5.1.5.4h0a.634.634,0,0,1-.5.6M10.8,62.6l22.3-.2a.472.472,0,0,1,.5.5h0a.56.56,0,0,1-.5.6l-22.3.3h0a.5.5,0,1,1,0-1" fill="#f4f4f4"/>
            <path id="Path_16571" d="M61.8,68.1a9.15,9.15,0,0,0-3.3,0,.6.6,0,0,0-.4.1V65.6a.8.8,0,1,0-1.6,0h0v2a10.639,10.639,0,0,0-2.5-.9.856.856,0,0,0-.9.7.875.875,0,0,0,.6.9,6.049,6.049,0,0,1,2.1.8,9.254,9.254,0,0,0-3.8,3,8.659,8.659,0,0,0-1.6,5.2v1.2a20.209,20.209,0,0,0,.6,3.4,5.356,5.356,0,0,0-1.5,1.5,4.966,4.966,0,0,0,0,5v.2a9.141,9.141,0,0,0,2,2.4c-.2.6-.3,1.2-.4,1.6a13.507,13.507,0,0,0-.5,5.3.773.773,0,0,0,.8.7h0a.709.709,0,0,0,.7-.8,11.742,11.742,0,0,1,.5-4.9c.1-.6.3-1.3.5-2.2,0-.4,0-.7-.4-.9a4.1,4.1,0,0,1-1.7-2v-.2a3.463,3.463,0,0,1-.2-3.4,3.343,3.343,0,0,1,2.5-1.5,1.777,1.777,0,0,1,1,.4,2.5,2.5,0,0,1,.8,1.8V85a.9.9,0,0,0,0,1.1.75.75,0,0,0,.9,0c.1,0,.2,0,.3-.2a21.479,21.479,0,0,0,4.5-6.6,16.552,16.552,0,0,0,.6-2.1,49.329,49.329,0,0,0,5.5.3h1.7a5.7,5.7,0,0,0,2.6-.4,7.607,7.607,0,0,0,1.9-1.2,5.936,5.936,0,0,0,1.8,1.3,37.89,37.89,0,0,1-.6,15A7.783,7.783,0,0,1,72,96.9a5.8,5.8,0,0,1-7.6-.7.778.778,0,0,0-1.1,1.1,6.986,6.986,0,0,0,2.9,1.9l.3,5.5a24.169,24.169,0,0,1-.6,4.6c-.2,1.1-.4,2.3-.5,3.4-2-1.7-4.2-3.5-6.3-5.2-2-1.6-4-3.2-5.8-4.7a3.463,3.463,0,0,0-4.1-.3,34.3,34.3,0,0,1-6.7,3.2c-3.2,1.3-6.6,2.6-8.9,4.8a16.37,16.37,0,0,0-3.8,7.1,105.94,105.94,0,0,0-3.9,15.7.875.875,0,0,0,.6.9h.1a.871.871,0,0,0,.8-.6,103.418,103.418,0,0,1,3.9-15.5,14.734,14.734,0,0,1,3.5-6.5c2-2,5.2-3.3,8.3-4.5a40.851,40.851,0,0,0,7-3.3,1.68,1.68,0,0,1,2.2.2c1.9,1.6,3.9,3.2,5.9,4.8,2.5,2,5.1,4.1,7.4,6.1a.785.785,0,0,0,1.1,0,.764.764,0,0,0,.2-.5,41.944,41.944,0,0,1,.6-4.8c.2-1.3.4-2.6.5-3.9a53.108,53.108,0,0,1,13,7.7.814.814,0,0,0,1.1-.2.769.769,0,0,0-.1-1,51.078,51.078,0,0,0-13.7-8.1H68l-.3-4.5h1A7.14,7.14,0,0,0,73,98.2a8.638,8.638,0,0,0,2.8-5.5A38.327,38.327,0,0,0,76.6,78a5.019,5.019,0,0,1,1.2.2,7.166,7.166,0,0,0,5.6-2.5,7.959,7.959,0,0,0-.2-9.8,10.04,10.04,0,0,0-9.4-3.1c-3.5.6-5.9,2.8-8,5-.8.9-2.4.7-4,.5m16.1-1.2a.517.517,0,0,1,.7-.3h0A4.12,4.12,0,0,1,81,71.5c0,.3-.4.4-.7.3-.2,0-.4-.3-.3-.6a3.1,3.1,0,0,0-1.8-3.5.517.517,0,0,1-.3-.7h0" fill="#f4f4f4"/>
            <path id="Path_16572" d="M173.6,185.8a.715.715,0,0,0-.9-.5h0a19.6,19.6,0,0,1-6.8-.9h0c-2.6-.7-5-1.3-7.5-.8-2.4.4-5.2,2.3-5.7,5.3a13.98,13.98,0,0,0,.5,5,14.76,14.76,0,0,1,.5,4.7h0a47.958,47.958,0,0,0-3.3,7.3,86.246,86.246,0,0,0-4.9-11.2,48.009,48.009,0,0,1,4.4-11.4l1.5-2.7c.5-.9,1-1.7,1.5-2.6l.6-.2a17.639,17.639,0,0,0,3.7-1.7,6.524,6.524,0,0,0,2.8-3.9,7.079,7.079,0,0,0,0-2.9,12.212,12.212,0,0,1,.1-2.7,7.385,7.385,0,0,1,1.7-2.5,12.667,12.667,0,0,0,1.1-1.3,9.315,9.315,0,0,0-.4-11.4c-2.3-2.6-5.7-3.5-8.8-4.3h0c-3-.8-6.1-1.8-7.8-4.2a.885.885,0,0,0-1.1-.2h0a.775.775,0,0,0-.2,1,13.6,13.6,0,0,1,1.1,12.1c-.2.5-.5,1.1-.7,1.6a15.3,15.3,0,0,0-1.4,4.1,9.077,9.077,0,0,0,2.4,6.8,21.825,21.825,0,0,0,5.4,4.2.913.913,0,0,0,1.1-.2c.3-.3.1-.8-.2-1.1h0a18.773,18.773,0,0,1-5-3.9,7.6,7.6,0,0,1-2-5.6,10.924,10.924,0,0,1,1.2-3.6c.3-.6.5-1.1.8-1.7a14.62,14.62,0,0,0,.3-10.1,23.923,23.923,0,0,0,5.8,2.2h0c3,.8,6.1,1.6,8,3.8a7.806,7.806,0,0,1,.3,9.4c-.3.4-.7.8-1,1.2a9.451,9.451,0,0,0-2.1,3.1,9.2,9.2,0,0,0-.2,3.3,10.454,10.454,0,0,1,0,2.5,5.358,5.358,0,0,1-2.1,3,6.591,6.591,0,0,1-2.4,1.1,24.429,24.429,0,0,0,1-2.4c1.4-4.2,1.2-8.3-.8-11.2-.2-.4-.7-.4-1.1-.2a.775.775,0,0,0-.2,1h0c1.6,2.5,1.8,6.2.6,9.9a33.248,33.248,0,0,1-3.4,6.8,24.867,24.867,0,0,0-1.5,2.8,52.159,52.159,0,0,0-4.1,10.1c-.4-.7-.7-1.3-1.1-2v-.2c-.4-2.3.3-5.2,1.1-8s1.5-5.7,1.1-8.1c-.7-5-5.3-8.1-9.3-9-4.1-.9-8.2,0-12.8,1.1h-.2c-3.9,1-8,2-11.9,1.4a.875.875,0,0,0-.9.6h0a1.05,1.05,0,0,0,.5.9c2.7.9,4.3,3.5,6,6.2s3.5,5.6,6.5,6.8a14.5,14.5,0,0,0,6.2.7h2.1c2.1,0,6.6,2.9,8.2,5.2q2.1,3.3,3.9,6.6a53.226,53.226,0,0,0-1.2,8,8.989,8.989,0,0,0-2.4-1.2c-.3,0-.5-.2-.8-.2a.756.756,0,0,0-.1-.4,16.008,16.008,0,0,0-3.7-5.8c.5-1.9-.6-4-1.8-5.3a8.71,8.71,0,0,0-4.9-2.8c-2.6-.4-5.1.6-7.5,1.6a6.89,6.89,0,0,0-.8.3,14.262,14.262,0,0,1-2.7.9,27.341,27.341,0,0,0-5-.5.773.773,0,0,0-.8.7.67.67,0,0,0,.4.7,7.226,7.226,0,0,0,5.4.6,8.469,8.469,0,0,1,3,1.5,9.336,9.336,0,0,1,1.3,1.5c.5.6,1.1,1.2,1.7,1.8a7.322,7.322,0,0,0,4.3,1.6,4.868,4.868,0,0,0,1.2-.1,6.579,6.579,0,0,0,4-2.5,16.181,16.181,0,0,1,4.3,6.1,2.078,2.078,0,0,0-1.2.5,2.845,2.845,0,0,0-1.1,2.3,2.062,2.062,0,0,0,1,1.7,1.715,1.715,0,0,0,1.7,0,2.631,2.631,0,0,0,1.5-1.6,2.079,2.079,0,0,0,.1-1.1,9.186,9.186,0,0,1,2.7,1.6,60.418,60.418,0,0,0,.2,7.4v.2h-5.3a.86.86,0,0,0-.8.8h0v10.4c.1,4.4,3.4,8.2,8.1,9.8H139a.773.773,0,0,0-.8.7h0a.773.773,0,0,0,.7.8h26.4a.752.752,0,0,0,.1-1.5H154.3c4.7-1.6,8-5.3,8-9.7l.3-10.6a.735.735,0,0,0-.2-.6,1.072,1.072,0,0,0-.6-.2H152c-.3-1.2-.7-2.5-1.1-3.7a42.149,42.149,0,0,1,4.8-10.6l.2-.2c.7-1.2,3.4-3.2,4.6-3.2h1.2a9.163,9.163,0,0,0,3.7-.3c1.8-.7,2.9-2.4,4-4,1-1.5,1.9-2.9,3.4-3.4a.779.779,0,0,0,.5-1h0M141.6,188a2.092,2.092,0,0,0-.4-.6,103.1,103.1,0,0,0-6.7-9.2.792.792,0,0,0-1.1-.1.775.775,0,0,0-.2,1h0l3.3,4.2a10.936,10.936,0,0,0-4.9-1.9h-2.2a13.268,13.268,0,0,1-5.6-.6c-2.5-1.1-4.1-3.6-5.8-6.2a24.876,24.876,0,0,0-4-5.2,41.145,41.145,0,0,0,9.3-1.6h.2c4.4-1.1,8.3-1.9,12.1-1.1,3.5.7,7.5,3.4,8.1,7.7.3,2.2-.4,4.9-1.1,7.5a29.411,29.411,0,0,0-1.2,5.9m-8.1,5.2h0a.1.1,0,0,1-.1.1h-.3a.367.367,0,0,1-.3-.1,10.742,10.742,0,0,0-9-1.8h0a.675.675,0,0,1-.6-.4c0-.2,0-.5.3-.6a11.361,11.361,0,0,1,9.9,2,.494.494,0,0,1,.1.7h0m4.8,10.9c0,.3-.3.5-.6.7h-.4c-.1,0-.2-.3-.2-.4a.975.975,0,0,1,.4-.9,1.884,1.884,0,0,1,.8-.2v.9m4.5,19.9a.494.494,0,0,1-.7.1h0c-.4-.3-1.5-1.1-1.5-2.2v-.4a2.075,2.075,0,0,1,.6-1,2.181,2.181,0,0,0,.4-.5,1.111,1.111,0,0,0-.5-1.4c-.3-.1-.3-.4-.2-.7a.481.481,0,0,1,.6-.2,2.16,2.16,0,0,1,1,2.8h0a1.794,1.794,0,0,1-.5.7,2.092,2.092,0,0,0-.4.6c-.1.4.2.9,1.1,1.6a.494.494,0,0,1,.1.7h0m2.3-26.8a79.919,79.919,0,0,1,4.6,11.4c-.3,1.1-.6,2.2-.9,3.4v.5h-1.1v-.2a11.7,11.7,0,0,0-1.1-4.9,12.44,12.44,0,0,0-2.3-3.2,41.924,41.924,0,0,1,.9-7m-.7,15.3v-.2a58.28,58.28,0,0,1-.3-5.9h0a14,14,0,0,1,1,1.6,10.235,10.235,0,0,1,.9,4.2v.2h-1.6Zm14.6,4.1h.5a.5.5,0,0,1,0,1h-.5a.5.5,0,1,1,0-1m.7,4.6a.56.56,0,0,1,.6-.5.472.472,0,0,1,.5.5h0a10.449,10.449,0,0,1-10.5,9.9.5.5,0,0,1,0-1,9.518,9.518,0,0,0,9.5-8.9m-9-8.8h-.5v-.2h0a2.92,2.92,0,0,1,.2-.9,2.92,2.92,0,0,0,.2.9v.1m17.8-22.9h0c-1,1.5-1.9,2.8-3.2,3.4a6.458,6.458,0,0,1-3.1.2h-1.3a4.711,4.711,0,0,0-1.7.4c.3-.4.7-.9,1-1.3a.9.9,0,0,0,0-1.1c-.2-.3-.8-.2-1.1,0a48.229,48.229,0,0,0-3.8,5.1,23.816,23.816,0,0,0-.5-2.6,13.843,13.843,0,0,1-.5-4.5c.4-2.3,2.6-3.7,4.5-4.1.5,0,1-.1,1.6-.1a18.308,18.308,0,0,1,5.2.9h0a24.551,24.551,0,0,0,4.7,1,23.481,23.481,0,0,0-1.9,2.5" fill="#f4f4f4"/>
            <path id="Path_16573" d="M136.1,170.6a.789.789,0,0,0,.8-.8.755.755,0,0,0-.4-.7,15.2,15.2,0,0,0-11.2-1.8.779.779,0,0,0-.5,1,.715.715,0,0,0,.9.5,13.744,13.744,0,0,1,10.1,1.6c.1,0,.3.1.4.1" fill="#f4f4f4"/>
            <path id="Path_16574" d="M138.3,172.1h.1a.789.789,0,0,0,.8-.8.736.736,0,0,0-.8-.8h-.1a.789.789,0,0,0-.8.8.736.736,0,0,0,.8.8" fill="#f4f4f4"/>
            <path id="Path_16575" d="M154.4,150.1a5.019,5.019,0,0,1,3.8,4.2.773.773,0,0,0,.8.7h.1a.808.808,0,0,0,.7-.9h0a6.627,6.627,0,0,0-5-5.5.875.875,0,0,0-.9.6.779.779,0,0,0,.6.9" fill="#f4f4f4"/>
            <path id="Path_16576" d="M30.4,208.2a.778.778,0,0,0,1.1-1.1h0a59.042,59.042,0,0,1-18.4-30.8.765.765,0,1,0-1.5.3h0a61.318,61.318,0,0,0,18.9,31.7" fill="#f4f4f4"/>
            <path id="Path_16577" d="M16,205.8a.785.785,0,0,0,1.1,0,.668.668,0,0,0,0-1,34.547,34.547,0,0,1-7.9-15.3.765.765,0,1,0-1.5.3,37.613,37.613,0,0,0,8.2,16" fill="#f4f4f4"/>
          </g>
        </g>
      </g>
      <g id="Group_17719">
        <g id="Group_17947" data-name="Group 17947" clip-path="url(#clip-path-4)">
          <g id="Group_17718">
            <path id="Path_16578" d="M207.2,0h-.8L186.6,2.1s-35.1,3.3-35.1,3.7L138.1,7.2a6.74,6.74,0,0,0-6,6.3c-.2,4.9-.6,23.4-.8,37-.1,7-.2,13-.3,15.5a.773.773,0,0,0,.7.8h0a.789.789,0,0,0,.8-.8c0-2.5.2-8.5.3-15.5.2-13.5.6-32.1.8-36.9a5.235,5.235,0,0,1,4.6-4.9L149,7.6c.8-.1,2.3-.3,2.3-.3l35.2-3.6,20.1-2.1a5.237,5.237,0,0,1,5.7,4.6h0v.6c0,3.5-.1,7.1-.2,10.6-.1,6.9-.2,13.6-.3,19.9v8.1c-.2,18.4-.2,36.9,0,54.8a.789.789,0,0,0,.8.8h0a.86.86,0,0,0,.8-.8c-.1-18-.1-36.4,0-54.8V37.3c.2-6.3.3-13,.4-19.9,0-3.5.1-7.1.2-10.6A7.01,7.01,0,0,0,207.2,0h0" fill="#f4f4f4"/>
          </g>
        </g>
      </g>
      <g id="Group_17724">
        <g id="Group_17949" data-name="Group 17949" clip-path="url(#clip-path)">
          <g id="Group_17723">
            <path id="Path_16579" d="M118.8,139.6H106.5a4.868,4.868,0,0,0-1.2.1h-2a12.253,12.253,0,0,1-1.9-.2H99.6a7.518,7.518,0,0,1-1.5,0h-.5a16.2,16.2,0,0,1-2.2-.1,13.962,13.962,0,0,0-4.1.2c-3.7,5.3-7,10.9-10.6,16.3-2.2-4.5-8-5.7-12.4-4.4a100.6,100.6,0,0,0-10.8,4.2,19.571,19.571,0,0,1-3.4,1.2c-.2.1-.2.5-.4.6a12.446,12.446,0,0,1-2,1h2.4a108.7,108.7,0,0,1,14.6-5.9,9.627,9.627,0,0,1,10.2,2.1,1.871,1.871,0,0,1,.4,2.5c0,.1-.2.2-.3.3a6.822,6.822,0,0,0-4.5-3.6c1.6,1.2,3.5,2.3,3.9,4.4a33.084,33.084,0,0,1-5.3-1.8q1.35,1.2,3,2.4c-1.6,1.1-3.4.4-5-.2A12.735,12.735,0,0,0,73,160c-2.2,2.6-5.5-.7-7.9,1-2.3,1.6-4.6,3.2-6.8,4.9s-1.1,2.2-6.2,4.9c-.7.4-2.2.5-2.9.8a7.366,7.366,0,0,0,.4,1.4,7.805,7.805,0,0,0,3.6-1,23.8,23.8,0,0,0,4-3.1,18.953,18.953,0,0,0,1.9-2.1,31.015,31.015,0,0,1,4.6-3.5,8.669,8.669,0,0,1,2.7-1.4,4.785,4.785,0,0,1,2.9,0,4.993,4.993,0,0,0,2.7-.2,20.185,20.185,0,0,0,3-1.4c.5-.3,1-.5,1.5-.8a4.715,4.715,0,0,0,1.5-.6c-.8,2-2.8,4.5-1,6.6a18.567,18.567,0,0,1,11.7,3,24.3,24.3,0,0,1,3.7,1.6,81.717,81.717,0,0,1,8.6,1.7c4.2.6,7.1-4.7,5.4-8.3,1.2-1.7,2.4-3.5,3.7-5.1a9.51,9.51,0,0,1,1.5-2c3-4.4,6.1-8.7,9.1-13.1,1.1-1.3,0-3.9-1.7-3.8m-27,1.6a82.968,82.968,0,0,1-9.9,15.7c2.4-5.7,6.2-10.7,9.9-15.7m8.6,29.8c-4.5-.9-9.1-1.9-13.2-4.2-1.6-.8-3.7-1.4-4.2-3.3,1.9.7,3.4,2.3,5.5,2.5-1.1-1.6-3.7-1.8-4.2-3.9,2.1-.1,3.5,1.6,5.2,2.6a18.2,18.2,0,0,0,5.7.7c-2.9-1-6.3-1.5-8.2-4.2,3.3-.3,7.3,3,10,1a21.658,21.658,0,0,1-2.5-.4c0-.2-.1-.7-.1-.9,2.8-.7,5.2,1.3,7.5,2.6,1.2.8,3.1.8,3.6,2.3.8,2.8-2.1,6.3-5,5.4m1.1-19.3c1.1-.8,3.2-.7,3.3.9,0,2.7-2.8,3.8-4.7,5-2.4-1.8-2.9-7.9,1.4-5.9m3.3-1.8c-2.1.4-5.3,1.5-6.6-.8-1.7-2.3-3.7-4.4-5.5-6.7h25.7c-4.6,2.4-9,5-13.6,7.4m-11.9-8.3c-.8.2-.9-.8-1.2-1.3h27.4c.2.4.5.9.7,1.3-9,.2-17.9-.1-26.9,0" fill="#f4f4f4"/>
            <path id="Path_16580" d="M118.7,16.2,77.8,21.1a2.838,2.838,0,0,0-2.5,3.2L78,46.5A2.838,2.838,0,0,0,81.2,49h0l40.9-4.9a2.838,2.838,0,0,0,2.5-3.2h0l-2.7-22.2a2.838,2.838,0,0,0-3.2-2.5h0" fill="#fff"/>
            <path id="Path_16581" d="M79.3,49.8A3.508,3.508,0,0,1,77,47L74.3,24.8a3.357,3.357,0,0,1,2.9-3.7l40.9-4.9a3.357,3.357,0,0,1,3.7,2.9l2.7,22.2a3.357,3.357,0,0,1-2.9,3.7h0L80.7,49.9a6.15,6.15,0,0,1-1.4-.1m40-32.6a1.7,1.7,0,0,0-1,0L77.4,22.1a2.446,2.446,0,0,0-2.1,2.7L78,47a2.524,2.524,0,0,0,2.7,2.1l40.9-4.9a2.524,2.524,0,0,0,2.1-2.7L121,19.3a2.546,2.546,0,0,0-1.6-2" fill="#f4f4f4"/>
            <rect id="Rectangle_3033" width="46.7" height="6" transform="translate(75.832 28.213) rotate(-7.1)" fill="#fc6e20"/>
            <path id="Path_16582" d="M82.7,39.6a.2.2,0,0,1-.2-.2s0-.2-.1-.2a.458.458,0,0,1,.4-.5l24-2.8h.4c.1,0,.2.2.2.3a.367.367,0,0,1-.1.3s-.2.2-.3.2L83,39.5h-.2Z" fill="#f4f4f4"/>
            <path id="Path_16583" d="M84.3,46.2a2.214,2.214,0,1,0-1.4-2.8,2.2,2.2,0,0,0,1.4,2.8h0" fill="#f4f4f4"/>
            <path id="Path_16584" d="M167.6,51.8l-.3-5.9a3.882,3.882,0,0,1,3.3.8c1.6,1.3,1.6,3.9-.4,4.7a2.208,2.208,0,0,1-1.6,0,.687.687,0,0,0-.9.3h0v.2" fill="#fc6e20"/>
            <path id="Path_16585" d="M179,47.5c-.6,1.6-1.4,3.8-1.6,4.4H181C181,52,179,47.5,179,47.5Zm0,0c-.6,1.6-1.4,3.8-1.6,4.4H181C181,52,179,47.5,179,47.5Zm0,0c-.6,1.6-1.4,3.8-1.6,4.4H181C181,52,179,47.5,179,47.5Zm0,0c-.6,1.6-1.4,3.8-1.6,4.4H181C181,52,179,47.5,179,47.5Zm0,0c-.6,1.6-1.4,3.8-1.6,4.4H181C181,52,179,47.5,179,47.5Zm0,0c-.6,1.6-1.4,3.8-1.6,4.4H181C181,52,179,47.5,179,47.5Zm0,0c-.6,1.6-1.4,3.8-1.6,4.4H181C181,52,179,47.5,179,47.5Zm0,0c-.6,1.6-1.4,3.8-1.6,4.4H181C181,52,179,47.5,179,47.5Zm0,0c-.6,1.6-1.4,3.8-1.6,4.4H181C181,52,179,47.5,179,47.5Zm0,0c-.6,1.6-1.4,3.8-1.6,4.4H181C181,52,179,47.5,179,47.5Zm0,0c-.6,1.6-1.4,3.8-1.6,4.4H181C181,52,179,47.5,179,47.5Zm0,0c-.6,1.6-1.4,3.8-1.6,4.4H181C181,52,179,47.5,179,47.5Zm0,0c-.6,1.6-1.4,3.8-1.6,4.4H181C181,52,179,47.5,179,47.5Zm0,0c-.6,1.6-1.4,3.8-1.6,4.4H181C181,52,179,47.5,179,47.5Zm0,0c-.6,1.6-1.4,3.8-1.6,4.4H181C181,52,179,47.5,179,47.5Zm0,0c-.6,1.6-1.4,3.8-1.6,4.4H181C181,52,179,47.5,179,47.5Zm0,0c-.6,1.6-1.4,3.8-1.6,4.4H181C181,52,179,47.5,179,47.5Zm0,0c-.6,1.6-1.4,3.8-1.6,4.4H181C181,52,179,47.5,179,47.5Zm0,0c-.6,1.6-1.4,3.8-1.6,4.4H181C181,52,179,47.5,179,47.5Zm0,0c-.6,1.6-1.4,3.8-1.6,4.4H181C181,52,179,47.5,179,47.5Zm0,0c-.6,1.6-1.4,3.8-1.6,4.4H181C181,52,179,47.5,179,47.5Zm0,0c-.6,1.6-1.4,3.8-1.6,4.4H181C181,52,179,47.5,179,47.5Zm0,0c-.6,1.6-1.4,3.8-1.6,4.4H181C181,52,179,47.5,179,47.5Zm0,0c-.6,1.6-1.4,3.8-1.6,4.4H181C181,52,179,47.5,179,47.5Zm0,0c-.6,1.6-1.4,3.8-1.6,4.4H181C181,52,179,47.5,179,47.5Zm0,0c-.6,1.6-1.4,3.8-1.6,4.4H181C181,52,179,47.5,179,47.5Zm0,0c-.6,1.6-1.4,3.8-1.6,4.4H181C181,52,179,47.5,179,47.5Zm0,0c-.6,1.6-1.4,3.8-1.6,4.4H181C181,52,179,47.5,179,47.5Zm0,0c-.6,1.6-1.4,3.8-1.6,4.4H181C181,52,179,47.5,179,47.5Zm0,0c-.6,1.6-1.4,3.8-1.6,4.4H181C181,52,179,47.5,179,47.5Zm0,0c-.6,1.6-1.4,3.8-1.6,4.4H181C181,52,179,47.5,179,47.5Zm0,0c-.6,1.6-1.4,3.8-1.6,4.4H181C181,52,179,47.5,179,47.5Zm-18.2-4.4V59.2l39.9,3.6V39.6l-39.9,3.6Zm7.1,13.2a.669.669,0,0,1-.6.7h0a.645.645,0,0,1-.6-.6l-.6-10.9a.752.752,0,0,1,.5-.7,5.59,5.59,0,0,1,5,.9c2.3,1.9,2.2,5.8-.8,6.9a3.868,3.868,0,0,1-2.6,0c-.2,0-.3-.2-.4-.4l.2,4.2Zm6.8-.8c1.1-3.3,2.6-6.8,3.6-10a.68.68,0,0,1,.8-.4c.2,0,.3.2.4.4l4.4,9.7a.671.671,0,0,1-1.2.6h0l-1.1-2.5c-.1,0-.3.2-.4.1-4.4-.1-4.1-.1-4.2-.1-.4,1-.7,1.9-1,2.8a.632.632,0,1,1-1.2-.4h0m18.5-9.2A37.85,37.85,0,0,1,188,56.9a.55.55,0,0,1-.5.3.6.6,0,0,1-.4-.1.564.564,0,0,1-.1-.9,25.638,25.638,0,0,0,2.2-3.5,31.892,31.892,0,0,0-2.6-2.6,22.256,22.256,0,0,1-2.6-2.7.633.633,0,0,1,.1-.9.746.746,0,0,1,.9,0h0a19.678,19.678,0,0,0,2.5,2.5,17.525,17.525,0,0,1,2.3,2.4,35.381,35.381,0,0,0,2.3-5.3.632.632,0,1,1,1.2.4m-14.3,1c-.6,1.6-1.4,3.8-1.6,4.4H181C181,52,179,47.5,179,47.5Zm0,0c-.6,1.6-1.4,3.8-1.6,4.4H181C181,52,179,47.5,179,47.5Zm0,0c-.6,1.6-1.4,3.8-1.6,4.4H181C181,52,179,47.5,179,47.5Zm0,0c-.6,1.6-1.4,3.8-1.6,4.4H181C181,52,179,47.5,179,47.5Zm0,0c-.6,1.6-1.4,3.8-1.6,4.4H181C181,52,179,47.5,179,47.5Zm0,0c-.6,1.6-1.4,3.8-1.6,4.4H181C181,52,179,47.5,179,47.5Zm0,0c-.6,1.6-1.4,3.8-1.6,4.4H181C181,52,179,47.5,179,47.5Zm0,0c-.6,1.6-1.4,3.8-1.6,4.4H181C181,52,179,47.5,179,47.5Zm0,0c-.6,1.6-1.4,3.8-1.6,4.4H181C181,52,179,47.5,179,47.5Zm0,0c-.6,1.6-1.4,3.8-1.6,4.4H181C181,52,179,47.5,179,47.5Zm0,0c-.6,1.6-1.4,3.8-1.6,4.4H181C181,52,179,47.5,179,47.5Zm0,0c-.6,1.6-1.4,3.8-1.6,4.4H181C181,52,179,47.5,179,47.5Zm0,0c-.6,1.6-1.4,3.8-1.6,4.4H181C181,52,179,47.5,179,47.5Zm0,0c-.6,1.6-1.4,3.8-1.6,4.4H181C181,52,179,47.5,179,47.5Zm0,0c-.6,1.6-1.4,3.8-1.6,4.4H181C181,52,179,47.5,179,47.5Zm0,0c-.6,1.6-1.4,3.8-1.6,4.4H181C181,52,179,47.5,179,47.5Zm0,0c-.6,1.6-1.4,3.8-1.6,4.4H181C181,52,179,47.5,179,47.5Zm0,0c-.6,1.6-1.4,3.8-1.6,4.4H181C181,52,179,47.5,179,47.5Zm0,0c-.6,1.6-1.4,3.8-1.6,4.4H181C181,52,179,47.5,179,47.5Zm0,0c-.6,1.6-1.4,3.8-1.6,4.4H181C181,52,179,47.5,179,47.5Zm0,0c-.6,1.6-1.4,3.8-1.6,4.4H181C181,52,179,47.5,179,47.5Zm0,0c-.6,1.6-1.4,3.8-1.6,4.4H181C181,52,179,47.5,179,47.5Zm0,0c-.6,1.6-1.4,3.8-1.6,4.4H181C181,52,179,47.5,179,47.5Zm0,0c-.6,1.6-1.4,3.8-1.6,4.4H181C181,52,179,47.5,179,47.5Zm0,0c-.6,1.6-1.4,3.8-1.6,4.4H181C181,52,179,47.5,179,47.5Zm0,0c-.6,1.6-1.4,3.8-1.6,4.4H181C181,52,179,47.5,179,47.5Zm0,0c-.6,1.6-1.4,3.8-1.6,4.4H181C181,52,179,47.5,179,47.5Zm0,0c-.6,1.6-1.4,3.8-1.6,4.4H181C181,52,179,47.5,179,47.5Zm0,0c-.6,1.6-1.4,3.8-1.6,4.4H181C181,52,179,47.5,179,47.5Zm0,0c-.6,1.6-1.4,3.8-1.6,4.4H181C181,52,179,47.5,179,47.5Zm0,0c-.6,1.6-1.4,3.8-1.6,4.4H181C181,52,179,47.5,179,47.5Zm0,0c-.6,1.6-1.4,3.8-1.6,4.4H181C181,52,179,47.5,179,47.5Zm0,0c-.6,1.6-1.4,3.8-1.6,4.4H181C181,52,179,47.5,179,47.5Z" fill="#fc6e20"/>
            <path id="Path_16586" d="M201.2,39.1a.764.764,0,0,0-.5-.2l-39.9,3.6a.645.645,0,0,0-.6.6V59.2a.645.645,0,0,0,.6.6l39.9,3.6h0c.4,0,.6-.3.7-.7V39.5c0-.2,0-.4-.2-.5m-1.1,23-38.6-3.4V43.7l38.6-3.4V62.1Z" fill="#f4f4f4"/>
            <path id="Path_16587" d="M142.7,34.4c0-.4.2-.7.6-.7h0L203,28.2c.4,0,.7.2.7.6s-.2.7-.6.7h0L143.4,35c-.4,0-.7-.2-.7-.6" fill="#f4f4f4"/>
            <path id="Path_16588" d="M142,26.9a1.9,1.9,0,1,0,1-2.5,1.912,1.912,0,0,0-1.1,2.3v.2" fill="#f4f4f4"/>
            <path id="Path_16589" d="M146.3,25.4a2.493,2.493,0,0,0-1.9-1.8,2.571,2.571,0,1,0,1.9,3.1,5.652,5.652,0,0,0,0-1.3m-3.7,1.2a1.3,1.3,0,1,1,2.4-1h0v.2a1.284,1.284,0,0,1-.9,1.6,1.189,1.189,0,0,1-1.5-.7" fill="#f4f4f4"/>
            <path id="Path_16590" d="M149.9,25.9a1.9,1.9,0,1,0,1-2.5,1.912,1.912,0,0,0-1.1,2.3v.2" fill="#f4f4f4"/>
            <path id="Path_16591" d="M154.1,24.4a2.493,2.493,0,0,0-1.9-1.8,2.754,2.754,0,0,0-2.6.9,2.436,2.436,0,0,0-.3,2.6,2.6,2.6,0,0,0,2.4,1.6,1.949,1.949,0,0,0,.8-.1,2.579,2.579,0,0,0,1.6-3.2m-2.4,2a1.3,1.3,0,0,1-1.2-.8,1.23,1.23,0,0,1,.1-1.3,1.606,1.606,0,0,1,1.1-.5h.3c.5,0,.8.4.9.9a1.413,1.413,0,0,1-.8,1.6h-.4" fill="#f4f4f4"/>
            <path id="Path_16592" d="M157.3,24.9a1.9,1.9,0,1,0,1-2.5,1.912,1.912,0,0,0-1.1,2.3v.2" fill="#f4f4f4"/>
            <path id="Path_16593" d="M161.5,23.4a2.493,2.493,0,0,0-1.9-1.8,2.754,2.754,0,0,0-2.6.9,2.436,2.436,0,0,0-.3,2.6,2.6,2.6,0,0,0,2.4,1.6,1.949,1.949,0,0,0,.8-.1,2.579,2.579,0,0,0,1.6-3.2m-2.4,2a1.3,1.3,0,0,1-1.2-.8,1.23,1.23,0,0,1,.1-1.3,1.606,1.606,0,0,1,1.1-.5h.3c.5,0,.8.4.9.9a1.413,1.413,0,0,1-.8,1.6h-.4" fill="#f4f4f4"/>
            <path id="Path_16594" d="M171.5,22.2a.684.684,0,0,1-.7-.7.576.576,0,0,1,.6-.6l24.7-2.8c.4,0,.7.2.7.6s-.2.7-.6.7l-24.7,2.8h0" fill="#f4f4f4"/>
            <path id="Path_16595" d="M181.6,24.5c-.4,0-.6-.3-.6-.7a.645.645,0,0,1,.6-.6l5.3-.3c.4,0,.7.2.7.6s-.2.7-.6.7h0l-5.3.3h0" fill="#f4f4f4"/>
            <path id="Path_16596" d="M154.8,46.9H143.1c-.4,0-.7-.2-.7-.6s.2-.7.6-.7h11.8c.4,0,.7.2.7.6s-.2.7-.6.7h-.1" fill="#f4f4f4"/>
            <path id="Path_16597" d="M153,54.4H142.8c-.4,0-.6-.3-.6-.7a.645.645,0,0,1,.6-.6H153a.669.669,0,0,1,.7.6c0,.4-.2.7-.6.7H153" fill="#f4f4f4"/>
            <path id="Path_16598" d="M198.1,74.4h0l-21-1.6a.661.661,0,0,1-.6-.7.669.669,0,0,1,.7-.6l21,1.6a.661.661,0,0,1,.6.7.645.645,0,0,1-.6.6" fill="#f4f4f4"/>
            <path id="Path_16599" d="M188.4,81.8h0L177.1,81a.661.661,0,0,1-.6-.7.669.669,0,0,1,.7-.6l11.3.8a.661.661,0,0,1,.6.7.645.645,0,0,1-.6.6" fill="#f4f4f4"/>
            <path id="Path_16600" d="M171.9,99.8a11.761,11.761,0,0,0-4.2-1c-1.7,0-3.7,1.1-5.5.2a8.04,8.04,0,0,1-2.2-2.3,2.248,2.248,0,0,0-1.8-1c-.5.1-.9.7-1.3,1.2a7.167,7.167,0,0,1-10.2.6,6.923,6.923,0,0,1-2.1-3.3.632.632,0,1,1,1.2-.4,6.023,6.023,0,0,0,7.4,4,5,5,0,0,0,2.7-1.8,4.213,4.213,0,0,1,1.9-1.6,3.183,3.183,0,0,1,3.2,1.4,2.092,2.092,0,0,1,.4.6c1.2,1.6,1.6,1.9,4.2,1.3,2.1-.5,2.8-.5,5.6.5,1.4.5,3.4,1.1,4.8.2a.64.64,0,1,1,.8,1h0a5.293,5.293,0,0,1-4.9.3" fill="#f4f4f4"/>
            <path id="Path_16601" d="M158.1,72.5c-.5-3.5-3.1-7.3-6.4-7.6s-6.1,3.4-6.4,6.9a.367.367,0,0,0-.3.1c-.5.3-.7.9-.7,1.9a7.593,7.593,0,0,0,3.3,6.1,3.139,3.139,0,0,0,1.6.6l5.2.4a3.178,3.178,0,0,0,1.4-.2,6.225,6.225,0,0,0,3.4-5.7h0a3.174,3.174,0,0,0-1-2.5m-6.6,5.4a1.24,1.24,0,0,1-1.2-1.3,1.11,1.11,0,0,1,1.1-1.1h.1a1.24,1.24,0,0,1,1.2,1.3,1.11,1.11,0,0,1-1.1,1.1h-.1m3.4-5.3c-2.5,1.4-5,.5-7-.3a8.3,8.3,0,0,0-2.1-.6c.4-3.1,2.9-6.5,5.8-6.2,2.8.2,5.2,3.6,5.7,6.7a2.971,2.971,0,0,0-2.4.5" fill="#f4f4f4"/>
            <path id="Path_16602" d="M164.4,74.5h-1v-.8a.4.4,0,0,1,0-.8v-.4c0-.1-.1-.3-.2-.3h-1.3a.139.139,0,0,0-.2,0V74h-1a.419.419,0,0,0-.6.3h0v6.2a.645.645,0,0,0,.6.6l3.9.3a.675.675,0,0,0,.6-.4h0V74.8a.645.645,0,0,0-.6-.6m-.3,6.8-3.6-.3V75.9c1.2,1.7,1.9-.7,3.6.3Z" fill="#f4f4f4"/>
            <path id="Path_16603" d="M221.2,177.4l6.3-9.3c-3.5,1.4-5.3,5.8-8.9,6.9a13.451,13.451,0,0,1-4.9,0l-17.2-2.7a25.177,25.177,0,0,0-5.4-.8,184.615,184.615,0,0,0,23.5,4.8,37.63,37.63,0,0,0,6.6,1" fill="#1c1c1c"/>
            <path id="Path_16604" d="M187.8,172.2c-1.2-.1-2.5-.2-3.7-.3-.4,0-.6-.3-.6-.7h0c1-10.4,2-21.5,2.3-32.7a.749.749,0,0,1,.6-.7c.6,0,10.4.7,24.2.6,10.3,0,9.9-.4,10.3,0a.764.764,0,0,1,.2.5c-.2,4.5-.3,9.2-.4,14.8,0,.4-.3.6-.7.6s-.6-.3-.6-.7h0c0-5.4.2-9.9.4-14.2-10.7.3-21.8.2-32.7-.4-.3,10.8-1.2,21.5-2.2,31.5,1,0,2,.2,3,.3.4,0,.6.3.6.7s-.3.6-.7.6h0" fill="#f4f4f4"/>
            <path id="Path_16605" d="M219.8,176.2c-9.3-1.6-19.1-2.8-30.1-3.8-.4,0-.6-.3-.6-.7s.3-.6.7-.6c10.7,1,20.4,2.2,29.5,3.7V157.3c0-.4.3-.6.7-.6s.6.3.6.7c-.2,19.1.1,18.4-.3,18.8a.44.44,0,0,1-.5.1" fill="#f4f4f4"/>
            <path id="Path_16606" d="M219.9,176.1a.651.651,0,0,1-.2-.9h0a21.426,21.426,0,0,1,6.7-6.7c-1-10.6-1.8-21-2.2-30.2-.9.3-2,.7-3.2,1.2a.671.671,0,1,1-.6-1.2,28.635,28.635,0,0,1,4.1-1.5.749.749,0,0,1,.8.5v.1c.4,9.5,1.2,20.3,2.3,31.4,0,.2,0,.5-.3.6-2.8,1.9-5,3.7-6.6,6.5a.651.651,0,0,1-.9.2h0" fill="#f4f4f4"/>
            <path id="Path_16607" d="M226.3,169.2a54.389,54.389,0,0,1-4.2-4.1.636.636,0,0,1,.9-.9,51.384,51.384,0,0,0,4.1,4,.636.636,0,0,1-.9.9" fill="#f4f4f4"/>
            <path id="Path_16608" d="M197.7,140.9a1.175,1.175,0,0,0-1.1,1,1.2,1.2,0,0,0,.9,1.2,1.061,1.061,0,1,0,.3-2.1" fill="#f4f4f4"/>
            <path id="Path_16609" d="M197.4,143.7a1.927,1.927,0,0,1-1.5-1.9c.1-1.3,1.7-2,2.2-1.4a1.7,1.7,0,0,1,1.2,1.9,1.75,1.75,0,0,1-1.9,1.4m.1-2.1c-.1,0-.2.2-.3.4a.51.51,0,0,0,.4.5c.2,0,.4-.1.4-.3v-.3l-.2-.2h-.2" fill="#f4f4f4"/>
            <path id="Path_16610" d="M210.1,141.5a1.175,1.175,0,0,0-1.1,1,1.2,1.2,0,0,0,.9,1.2,1.061,1.061,0,0,0,.3-2.1" fill="#f4f4f4"/>
            <path id="Path_16611" d="M209.8,144.3a1.927,1.927,0,0,1-1.5-1.9c.1-1.3,1.7-1.9,2.2-1.4a1.7,1.7,0,0,1,1.2,1.9,1.75,1.75,0,0,1-1.9,1.4m.1-2.1c-.1,0-.2.2-.3.4a.51.51,0,0,0,.4.5c.2,0,.4-.1.4-.3v-.3l-.2-.2H210" fill="#f4f4f4"/>
            <path id="Path_16612" d="M210.1,142.8c-.4,0-.6-.4-.5-.8h0a29.125,29.125,0,0,0,0-10.2,9.79,9.79,0,0,0-1.4-3.7,4.807,4.807,0,0,0-6.7-1.2c-.1,0-.3.2-.4.3a8.927,8.927,0,0,0-2.2,2.9c-1.6,3.5-1.3,7.5-.7,11.5,0,.4-.2.7-.6.7a.752.752,0,0,1-.7-.5c-.6-4.3-1-8.4.8-12.2a8.621,8.621,0,0,1,2.6-3.4,6.055,6.055,0,0,1,8.6.7c.1.1.2.3.3.4a9.418,9.418,0,0,1,1.6,4.2,27.015,27.015,0,0,1,0,10.6c0,.4-.4.6-.8.5" fill="#f4f4f4"/>
            <path id="Path_16613" d="M214.4,164.7a134.626,134.626,0,0,1-21.1-2c-.4,0-.6-.4-.5-.8,0-.4.4-.6.8-.5a133.24,133.24,0,0,0,20.9,2c.4,0,.6.3.6.7s-.3.6-.7.6" fill="#f4f4f4"/>
            <path id="Path_16614" d="M185.9,138.9a.651.651,0,0,1,.2-.9h0c1-.6,2.6-1.6,3.7-2.4.1,0,.2-.1.4-.1a266.182,266.182,0,0,1,34.6,1.2.661.661,0,0,1,.6.7.669.669,0,0,1-.7.6,280.223,280.223,0,0,0-34.3-1.3c-1.1.8-2.7,1.7-3.6,2.3a.959.959,0,0,1-.9-.2" fill="#f4f4f4"/>
            <path id="Path_16615" d="M214.3,136.5c-.2-2.4,0-4.4-1.2-6.3a5.632,5.632,0,0,0-10.3.4c-.8,1.7-.6,3.6-.8,5.6,0,.4-.3.6-.7.6s-.6-.3-.6-.7h0c.2-2,0-4.1,1-6a7.269,7.269,0,0,1,5.4-4.2,7.473,7.473,0,0,1,7.2,3.7c1.3,2.3,1.2,4.5,1.4,6.9,0,.4-.2.7-.6.7s-.7-.2-.7-.6" fill="#f4f4f4"/>
            <path id="Path_16616" d="M241.5,169.4h-15a.684.684,0,0,1-.7-.7c0-.4.3-.6.7-.6h15a.576.576,0,0,1,.6.6c0,.3-.3.7-.6.7" fill="#f4f4f4"/>
            <path id="Path_16617" d="M236.6,182.9a.562.562,0,0,1,0-.9h0a36.786,36.786,0,0,0,10-27.1.669.669,0,0,1,.6-.7c.3,0,.7.3.7.6h0a38.382,38.382,0,0,1-10.3,28.1.562.562,0,0,1-.9,0h0" fill="#f4f4f4"/>
            <path id="Path_16618" d="M245.9,179.1a.651.651,0,0,1-.2-.9,15.136,15.136,0,0,0,2.7-8.2c0-.4.3-.6.7-.6s.6.3.6.7h0a16.65,16.65,0,0,1-3,8.9.651.651,0,0,1-.9.2" fill="#f4f4f4"/>
            <path id="Path_16619" d="M196.3,153.5c-.4,0-.6-.4-.5-.8a.618.618,0,0,1,.8-.5h0a64.425,64.425,0,0,0,15.2.9.652.652,0,0,1,.1,1.3,66.977,66.977,0,0,1-15.5-.9" fill="#f4f4f4"/>
            <path id="Path_16620" d="M162.6,212.5a1.072,1.072,0,0,0-.6-.2h-9.8l-9.6.2h-5.3a.86.86,0,0,0-.8.8h0v10.4c.1,4.4,3.4,8.2,8.1,9.8h9.7c4.7-1.6,8-5.3,8-9.7l.3-10.6a.735.735,0,0,0-.2-.6m-19.8,11.2a.494.494,0,0,1-.7.1h0c-.4-.3-1.5-1.1-1.5-2.2v-.4a2.075,2.075,0,0,1,.6-1,2.181,2.181,0,0,0,.4-.5,1.111,1.111,0,0,0-.5-1.4c-.3-.1-.3-.4-.2-.7a.481.481,0,0,1,.6-.2,2.16,2.16,0,0,1,1,2.8h0a1.794,1.794,0,0,1-.5.7,2.092,2.092,0,0,0-.4.6c-.1.4.2.9,1.1,1.6a.494.494,0,0,1,.1.7h0m16.3-7.4h.5a.5.5,0,0,1,0,1h-.5a.5.5,0,1,1,0-1m1.7,4.7a10.521,10.521,0,0,1-10.5,9.9.5.5,0,0,1,0-1,9.518,9.518,0,0,0,9.5-8.9.56.56,0,0,1,.6-.5.472.472,0,0,1,.5.5h-.1Z" fill="#fc6e20"/>
            <g id="Group_17722" opacity="0.2">
              <g id="Group_17721">
                <g id="Group_17948" data-name="Group 17948" clip-path="url(#clip-path-6)">
                  <g id="Group_17720">
                    <path id="Path_16621" d="M259.1,85.4a15.9,15.9,0,1,0-15.9,15.9,15.876,15.876,0,0,0,15.9-15.9h0" fill="#fc6e20"/>
                  </g>
                </g>
              </g>
            </g>
          </g>
        </g>
      </g>
    </g>
  </g>
</svg>
