<svg xmlns="http://www.w3.org/2000/svg" xmlns:xlink="http://www.w3.org/1999/xlink" width="265" height="235" viewBox="0 0 265 235">
  <defs>
    <clipPath id="clip-path">
      <rect id="Rectangle_3237" data-name="Rectangle 3237" width="265" height="235" fill="none"/>
    </clipPath>
    <clipPath id="clip-path-3">
      <rect id="Rectangle_3231" data-name="Rectangle 3231" width="26.6" height="21.5" transform="translate(201.9 171)" fill="none"/>
    </clipPath>
    <clipPath id="clip-path-4">
      <rect id="Rectangle_3232" data-name="Rectangle 3232" width="49.9" height="16.8" transform="translate(168 113.8)" fill="none"/>
    </clipPath>
    <clipPath id="clip-path-5">
      <rect id="Rectangle_3233" data-name="Rectangle 3233" width="52.4" height="45.5" transform="translate(170.7 65.8)" fill="none"/>
    </clipPath>
    <clipPath id="clip-path-6">
      <rect id="Rectangle_3234" data-name="Rectangle 3234" width="72.9" height="62.3" transform="translate(18.2 105.5)" fill="none"/>
    </clipPath>
    <clipPath id="clip-path-7">
      <rect id="Rectangle_3235" data-name="Rectangle 3235" width="36.8" height="8.3" transform="translate(178.4 119.4)" fill="none"/>
    </clipPath>
  </defs>
  <g id="introimage_c_dark" clip-path="url(#clip-path)">
    <g id="Group_17711">
      <g id="Group_17710">
        <g id="Group_17955" data-name="Group 17955" clip-path="url(#clip-path)">
          <g id="Group_17709">
            <g id="Group_17696" opacity="0.2">
              <g id="Group_17695">
                <g id="Group_17950" data-name="Group 17950" clip-path="url(#clip-path-3)">
                  <g id="Group_17694">
                    <path id="Path_16456" d="M203.2,192.4s-1.2-1.7-1-10.8-1.9-9.2,3.9-10.1,19.2-.6,19.2-.6,3-.5,3,3.7v11.6s1.9,5.6-3.5,5.9-17.2,0-17.2,0h-4.3Z" fill="#fc6e20"/>
                  </g>
                </g>
              </g>
            </g>
            <g id="Group_17699" opacity="0.5">
              <g id="Group_17698">
                <g id="Group_17951" data-name="Group 17951" clip-path="url(#clip-path-4)">
                  <g id="Group_17697">
                    <path id="Path_16457" d="M168.9,117.8l-.9,3.7a12.173,12.173,0,0,1,.1,3.3c-.2.4,7,.8,7.5,1s28.8,5,31.5,4.9,9-1.9,9-1.9l1.6-15s-3.4,8.4-4.6,9.5.4,2.7-7,1.4a61.183,61.183,0,0,1-12.5-3.5,67.261,67.261,0,0,0-6.9-1.8c-2.1-.3-12.5-.5-13.7-.8s-4.3-.9-4.3-.9" fill="#fc6e20"/>
                  </g>
                </g>
              </g>
            </g>
            <g id="Group_17702" opacity="0.5">
              <g id="Group_17701">
                <g id="Group_17952" data-name="Group 17952" clip-path="url(#clip-path-5)">
                  <g id="Group_17700">
                    <path id="Path_16458" d="M174.5,102.9s5,3,5.6,4.2,5.8,2.1,5.8,2.1,10.7,2,12.2,2.1,3.4-.3,3.5-.6.9-4.8,1-5.7.7-1.3,1.7-1.3,18.5,5.7,18.5,5.7a24.25,24.25,0,0,0,0-9.3c-.9-4.9.4-6.3-1.3-12s-3.4-14.6-4.9-15.9-13.8-6.4-13.9-6.5-3.4.6-3.7,1.1-9.3,8.2-9.3,7.9-1.2-8.1-1.2-8.1a17.549,17.549,0,0,0-3.2,1.2c-1.5.7-12,4.6-12.7,8.9s-.7,15.1-1.5,16.3a2.36,2.36,0,0,0-.1,2.3l5.4,1.7-2,5.8v-.2Z" fill="#fc6e20"/>
                  </g>
                </g>
              </g>
            </g>
            <g id="Group_17705" opacity="0.5">
              <g id="Group_17704">
                <g id="Group_17953" data-name="Group 17953" clip-path="url(#clip-path-6)">
                  <g id="Group_17703">
                    <path id="Path_16459" d="M40.8,167.8s-5.4-2.8-8.6-3.5-5.6-.4-7-1.8-3.8-1.2-5.3-7.8-2.1-28.8-1.3-30.9,1.9-7.5,4.8-9.4,10.2-4.4,14-5.3a35.435,35.435,0,0,1,9.2-.8c1.8.1,3.6,1.6,4.7,1.6s3.9.3,5.4-1.3.1-3.6,4.1-3,25.9,9.1,29.6,34.2-7,24.8-7,24.8l-11.7,2.6-13.5-1.1-17.3,1.7Z" fill="#fc6e20"/>
                  </g>
                </g>
              </g>
            </g>
            <path id="Path_16460" d="M60.2,141.7s6.9-4.4,10.2-9.3,4.4-2.4,3.2-.4-3.1,6.5-.6,4.7a10.277,10.277,0,0,0,3.5-6c.3-1.4,2.2-1.2,2.7,0,0,0,3.3-.6,3.3,1.9s-.1,1.8-.1,1.8a1.973,1.973,0,0,1,2,1.8v.5c-.4,2.3-.2,1-.2,1s1.7-.5,1.7,1,2.2,6.3-17.7,13l-4,2.2-4-12.1Z" fill="#fff"/>
            <path id="Path_16461" d="M164.6,186.6a62.618,62.618,0,0,1,.7-15.6c-29.5-2.6-59.3,3.4-88.8.9-3.6-.3-7.5-.8-11,0-2.8.6-7.4,2.4-4.7,3,3.8.9,13.1,1.4,16.9,1.7,36.8,2.7,62.8,4,87,10.1" fill="#1c1c1c"/>
            <path id="Path_16462" d="M64.8,151.6c-.4-1.8-1-2.8-4.6-9.7,1,1.8,1,4.8,1.6,6.9.5,1.5,1.2,5.5,2.8,5.9a4.694,4.694,0,0,0,.2-3.1" fill="#1c1c1c"/>
            <path id="Path_16463" d="M51.6,96.8a.762.762,0,1,1,1.4-.6c.9,2,3.8,2.5,5.8,1.7,1.9-.8,3.4-2.6,4.6-5.4a22.431,22.431,0,0,0,1.9-9.9c0-1.8-1-3.2-1.8-4.9-5.4,4.9-11.8,6.1-17.3,3.2-.3-.2-.6-.3-1.4.1-.7.3-1.3,2.4-.9,3.3a4.909,4.909,0,0,0,2.2,2.3.721.721,0,1,1-.8,1.2h0a7.022,7.022,0,0,1-2.8-3.1c-.6-1.6.1-4.5,1.7-5.3a2.8,2.8,0,0,1,2.8,0c5.2,2.7,11.2,1.4,16.4-3.7a.785.785,0,0,1,1.1,0,1.439,1.439,0,0,0,.2.3c.3.7.6,1.3.9,2A10.318,10.318,0,0,1,67,82.4c.2,5.9-2.1,14.4-7.4,16.8-.8.3-6.5.4-7.8-2.4" fill="#f4f4f4"/>
            <path id="Path_16464" d="M47.8,94.4a4.429,4.429,0,0,1-1.1-3.3.752.752,0,0,1,1.5.1c0,1.1.3,2.5,1.4,2.5a.752.752,0,1,1,.1,1.5,2.64,2.64,0,0,1-1.9-.7" fill="#f4f4f4"/>
            <path id="Path_16465" d="M60.5,91.7a.721.721,0,1,1,.8-1.2.43.43,0,0,0,.4-.4,2.934,2.934,0,0,0-.4-1.6,3.872,3.872,0,0,1-.3-2.6.762.762,0,1,1,1.4.6h0a2.7,2.7,0,0,0,.3,1.5,4.345,4.345,0,0,1,.5,2.5A2.041,2.041,0,0,1,62,92a1.95,1.95,0,0,1-1.5,0" fill="#f4f4f4"/>
            <path id="Path_16466" d="M58.2,94.2a.707.707,0,0,1,0-1.1.784.784,0,0,1,1.1-.1,1.02,1.02,0,0,0,.9.2.728.728,0,0,1,.4,1.4h0a2.75,2.75,0,0,1-2.3-.5" fill="#f4f4f4"/>
            <path id="Path_16467" d="M23,96.9c-1.1.9-2.6,1.2-3.7,2.2a5.912,5.912,0,0,0-1.9,4.3,13.588,13.588,0,0,0,.9,4.8,17.563,17.563,0,0,0,2.9,5.8,6.757,6.757,0,0,0,5.8,2.4c2.8-.5,4.9-3.2,7.7-3,1.3,0,2.6.8,3.9,1.1a6.319,6.319,0,0,0,6.9-3.7c1.1-2.9-.2-6.1-.8-9.1a24.574,24.574,0,0,1,1.5-14.2c-.7-.7-1-.4-1.7-1.1a4.648,4.648,0,0,1-1.3-2.1c-1-3.2,1.8-4.9,4.2-3.2a12.046,12.046,0,0,0,6.9,2.2h2.9a13.712,13.712,0,0,0,3.7-1.7,4.49,4.49,0,0,1,3.2-.5c.9.3,1.8,1.2,2.7.9s1.1-1.4,1.1-2.4a12.915,12.915,0,0,0-5.8-10.2,19.781,19.781,0,0,0-7-2.6c-9.4-1-17.4,7.6-20.4,15.7a9.105,9.105,0,0,1-2.2,4.1c-1.3,1.1-3.1,1.3-4.4,2.3-2.6,1.9-2.6,6.2-5.1,8.2" fill="#f4f4f4"/>
            <path id="Path_16468" d="M42,139.2c1.3.4,2.7.2,4,.6s2.5,1.6,2.2,2.9c-.3,1.1-1.5,1.6-2.5,1.9l-8.4,3c.7-.2.8-11.2,1-12.5a5.5,5.5,0,0,0,3.7,4.1" fill="#1c1c1c"/>
            <path id="Path_16469" d="M72.6,134.1c-.5,2.7,3,.4,3.6-.6a8.3,8.3,0,0,0,.6-6,23.486,23.486,0,0,0-2.3-5.7c-1.2-2.3-8.3-11.5-6.6-4.1.6,2.8,1.8,4.9,2,7.8,0,1.3,1.1,4.8.6,5.9a3.53,3.53,0,0,1,1.7-1.5,1.71,1.71,0,0,1,2,.6,1.9,1.9,0,0,1-.5,1.9,4.185,4.185,0,0,0-1.1,1.8" fill="#1c1c1c"/>
            <path id="Path_16470" d="M33,165.1c-4.5,0-9-1.1-11.7-4.7a16.1,16.1,0,0,1-2.6-7.8,87.626,87.626,0,0,1-1-14.5.752.752,0,0,1,1.5.1h0a98.222,98.222,0,0,0,1,14.3c.3,2.4.8,5.1,2.3,7.1a9.658,9.658,0,0,0,6,3.6,26.12,26.12,0,0,0,7.4.4,67.785,67.785,0,0,0,27.4-8c-1.9-5.5-1.3-3.4-4-14.7a38.436,38.436,0,0,0-7.6.8.765.765,0,0,1-.3-1.5,34.993,34.993,0,0,1,8.5-.8.73.73,0,0,1,.7.6c3.2,13.5,2.3,9.5,4.3,15.8a.74.74,0,0,1-.4.9A71.383,71.383,0,0,1,36,165.2c-.9,0-2,.1-3,.1" fill="#f4f4f4"/>
            <path id="Path_16471" d="M34.3,148.9a.814.814,0,0,1,.2-1.1,45.39,45.39,0,0,1,12.3-6.5.781.781,0,0,1,1,.5.653.653,0,0,1-.5.9A43.8,43.8,0,0,0,35.4,149a.731.731,0,0,1-1.1-.2" fill="#f4f4f4"/>
            <path id="Path_16472" d="M18.6,133.1a.849.849,0,0,1-.8-.7c-.2-4.8-.5-11.3,2.8-16.1a17.244,17.244,0,0,1,8-6.1c4.7-1.9,10.9-3.4,15.9-3,2.9.2,5.6,2.4,8.1,2.2a6.612,6.612,0,0,0,4.8-3.3.819.819,0,0,1,1-.4c.4.1.5.6.4,1h0a8.078,8.078,0,0,1-6,4.1,11.255,11.255,0,0,1-4.8-1.1,14.249,14.249,0,0,0-3.5-1.1c-4.8-.4-10.8,1.1-15.2,2.9a16.8,16.8,0,0,0-7.4,5.5c-2.8,4.1-2.8,9.3-2.6,15.2a.773.773,0,0,1-.7.8h0" fill="#f4f4f4"/>
            <path id="Path_16473" d="M37.6,144.7,36,133.6a.765.765,0,1,1,1.5-.3v.1h0l1.6,11.2a.765.765,0,1,1-1.5.3v-.1h0" fill="#f4f4f4"/>
            <path id="Path_16474" d="M66.3,152.4a.819.819,0,0,1,.4-1h0c4.7-1.7,5.1-2.4,9.9-4.1,3.4-1.2,5.7-2.6,6.9-4,1-1.2,2.1-3,1.8-4.2a1.887,1.887,0,0,0-1.1-1.2.762.762,0,1,1,.6-1.4h0c3.3,1.4,2.3,5,0,7.8-1.4,1.6-3.8,3.1-7.5,4.4-4.7,1.7-5.1,2.4-9.9,4.1,0,0-.8,0-1-.4" fill="#f4f4f4"/>
            <path id="Path_16475" d="M78,143.2a.875.875,0,0,1,.6-.9,6.2,6.2,0,0,0,3.5-2.4,7.08,7.08,0,0,0,1.5-3.3,2.529,2.529,0,0,0-1.3-2.3A.738.738,0,1,1,83,133a4.062,4.062,0,0,1,2,3.7,8.793,8.793,0,0,1-6.2,7.1.875.875,0,0,1-.9-.6h0" fill="#f4f4f4"/>
            <path id="Path_16476" d="M77.1,141.2a.731.731,0,0,1,.4-1,7.166,7.166,0,0,0,4-8.3.664.664,0,0,0-.4-.5c-.1,0-.3-.1-.4,0a.728.728,0,1,1-.4-1.4h0a2.966,2.966,0,0,1,1.6.2,2.586,2.586,0,0,1,1.1,1.4,8.6,8.6,0,0,1-4.9,10,.731.731,0,0,1-1-.4" fill="#f4f4f4"/>
            <path id="Path_16477" d="M60,141.6a.731.731,0,0,1,.4-1,22.113,22.113,0,0,0,4-2.8,18.266,18.266,0,0,0,4-4.3,19.476,19.476,0,0,1,3.6-4,1.534,1.534,0,0,1,1.7-.4,1.3,1.3,0,0,1,.8,1.2c.3,1.7-1.1,3.6-1.6,4.6s.5.6.8.6,1.4-2.1,1.7-3.4c.2-1.2.4-2.3,1.4-3a2.351,2.351,0,0,1,3.1.7,3.684,3.684,0,0,1,.7,3,11.127,11.127,0,0,1-4,6.3.778.778,0,0,1-1.1-1.1h0a9.568,9.568,0,0,0,3.5-5.5,2.044,2.044,0,0,0-.3-1.7c-.2-.2-.7-.7-1.1-.4-.5.3-.6,1.3-.7,2a8.491,8.491,0,0,1-2.1,4.1c-2.2,2.4-3.1,2.3-3.4,2.2a1.2,1.2,0,0,1-1-.7c-.6-1.2.4-2.8,1.3-4,.7-1,1.5-2.2,1.3-3.4-2.6,2-4.4,6-7.7,8.4a31.879,31.879,0,0,1-4.2,3,.731.731,0,0,1-1-.4" fill="#f4f4f4"/>
            <path id="Path_16478" d="M83.8,123a.755.755,0,0,1-.7-.4,32.673,32.673,0,0,0-12.3-11.9l-.4-.2c-1.5-.8-1.2-.6-3.4-1.7a28.537,28.537,0,0,0-6.3-2.5.73.73,0,0,1-.6-.9.779.779,0,0,1,.9-.6,31.249,31.249,0,0,1,6.6,2.6c2.2,1.1,2,.9,3.5,1.7l.4.2a34.861,34.861,0,0,1,12.9,12.4.693.693,0,0,1-.3,1c-.1,0-.3.1-.4.1" fill="#f4f4f4"/>
            <path id="Path_16479" d="M91.2,142.9a151.335,151.335,0,0,0-5.3-14.7c-.4-1-.8-1.9-1.2-2.8a.762.762,0,1,1,1.4-.6h0c.4.8.8,1.8,1.3,2.8a133.528,133.528,0,0,1,5,13.8l.3,1a.791.791,0,0,1-1.5.5h0" fill="#f4f4f4"/>
            <path id="Path_16480" d="M72.5,127.9a.773.773,0,0,1-.7-.8,8.858,8.858,0,0,0-1-5.1.777.777,0,0,1,.3-1,.81.81,0,0,1,1,.3,9.608,9.608,0,0,1,1.2,6,.773.773,0,0,1-.8.7" fill="#f4f4f4"/>
            <path id="Path_16481" d="M29.3,134.3a.819.819,0,0,1-.4-1h0a8.817,8.817,0,0,0,.5-6.2c-.2-.7-.6-2,.3-2.7a2.01,2.01,0,0,1,.8-.4.367.367,0,0,0,.3-.1c.2-.1.2-.6,0-.9a3.482,3.482,0,0,0-1.3-1.1.623.623,0,0,1-.2-1,.81.81,0,0,1,1-.3,4.644,4.644,0,0,1,1.8,1.6,2.174,2.174,0,0,1-.5,2.9l-.6.3a.367.367,0,0,0-.3.1c-.2.2,0,.9.1,1.2a10.261,10.261,0,0,1-.6,7.3.819.819,0,0,1-1,.4h0" fill="#f4f4f4"/>
            <path id="Path_16482" d="M39.4,159.4l-.3-1.2a.728.728,0,0,1,1.4-.4h0l.3,1.2a.728.728,0,0,1-1.4.4h0" fill="#f4f4f4"/>
            <path id="Path_16483" d="M45.2,160.2l-.5-.8a.693.693,0,0,1,.3-1,.775.775,0,0,1,1,.2l.5.8a.767.767,0,0,1-1.3.8" fill="#f4f4f4"/>
            <path id="Path_16484" d="M60,116.9c-1.4-1.8-.7-3.5-.7-4.6a1.374,1.374,0,0,0-.4-1.2.721.721,0,1,1,.8-1.2h0a2.808,2.808,0,0,1,1.1,2.5c0,1.2-.6,2.4.3,3.6a.781.781,0,0,1-1.2,1h0" fill="#f4f4f4"/>
            <path id="Path_16485" d="M13.4,208.6l-.3-8.9a.789.789,0,0,1,.8-.8.849.849,0,0,1,.8.7l.3,8.9a.752.752,0,0,1-1.5.1h0" fill="#f4f4f4"/>
            <path id="Path_16486" d="M13.9,196.4a.789.789,0,0,1-.8-.8l-.2-22a.8.8,0,1,1,1.6,0l.2,22a.789.789,0,0,1-.8.8Z" fill="#f4f4f4"/>
            <path id="Path_16487" d="M59.3,172.9c-.1.3,0-2.5-.4,61.4a.789.789,0,0,0,.8.8.736.736,0,0,0,.8-.8l.3-61a2.7,2.7,0,0,1-1.5-.3" fill="#f4f4f4"/>
            <path id="Path_16488" d="M164.5,203.1a.789.789,0,0,1-.8-.8V173.1a.773.773,0,0,1,.7-.8.789.789,0,0,1,.8.8v29.2a.773.773,0,0,1-.7.8Z" fill="#f4f4f4"/>
            <path id="Path_16489" d="M169.7,164.9c-.1-.2-.3-.2-.6-.2L9.6,165a.789.789,0,0,0-.8.8h0v7.5c0,.2,0,.4.2.5.3.3-11.3.2,159.5-.1a.849.849,0,0,0,.8-.7l.5-7.5a.735.735,0,0,0-.2-.6M25.7,168.8a31.334,31.334,0,0,1-5.3.2.5.5,0,1,1,0-1,43.488,43.488,0,0,0,5.1-.2.51.51,0,1,1,.2,1h0m34.6,4a.472.472,0,0,1-.5-.5h0v-6.2a.5.5,0,0,1,1,0v6.2a.472.472,0,0,1-.5.5m50.2-4.1h-2.2a.536.536,0,0,1-.5-.5.472.472,0,0,1,.5-.5h2.2a.536.536,0,0,1,.5.5.472.472,0,0,1-.5.5m29,1.4h-21a.738.738,0,0,1-.5-.6.472.472,0,0,1,.5-.5h21a.738.738,0,0,1,.5.6.472.472,0,0,1-.5.5" fill="#f4f4f4"/>
            <path id="Path_16490" d="M57,105a.73.73,0,0,1-.6-.9,29.222,29.222,0,0,1,.4-5.1.806.806,0,0,1,1.6.2c-.5,4.1-.2,4.3-.4,5.2a.73.73,0,0,1-.9.6" fill="#f4f4f4"/>
            <path id="Path_16491" d="M70.5,221.2a.825.825,0,0,1-.5-1,18.29,18.29,0,0,0,.1-11.1v-.2a4.693,4.693,0,0,1-.3-3.3,3.956,3.956,0,0,1,1-1.5c.2-.2.4-.5.6-.7a3.825,3.825,0,0,0,0-3.6,16.436,16.436,0,0,0-2.6-3.3.785.785,0,0,1,0-1.1.666.666,0,0,1,1,0,12.839,12.839,0,0,1,2.9,3.7A4.839,4.839,0,0,1,72,205a2.589,2.589,0,0,0-.7,1.1,4.022,4.022,0,0,0,.3,2.4v.2a19.669,19.669,0,0,1,0,12,.825.825,0,0,1-1,.5h0" fill="#f4f4f4"/>
            <path id="Path_16492" d="M103.4,206.7a1.012,1.012,0,0,1-.7-.4l-4.5-8.9a.738.738,0,1,1,1.3-.7l4.5,8.9a.777.777,0,0,1-.3,1h-.3" fill="#f4f4f4"/>
            <path id="Path_16493" d="M105,197.6l-.7-2.9a.728.728,0,0,1,1.4-.4h0l.7,2.9a.728.728,0,0,1-1.4.4h0" fill="#f4f4f4"/>
            <path id="Path_16494" d="M22.8,199.3a.709.709,0,0,1,.7-.8H24a12.465,12.465,0,0,0-1.9-5.6.693.693,0,0,1,.3-1,.956.956,0,0,1,.9,0c.3.2,1-.2,1.1-.7.2-1-.5-2-1.9-4.9a.854.854,0,0,1,0-.7,7.175,7.175,0,0,0-.8-7.2.731.731,0,0,1,.2-1.1h0a1.007,1.007,0,0,1,.3-.1,3.568,3.568,0,0,1,2.5.5.714.714,0,0,1,.3,1,.81.81,0,0,1-1,.3.31.31,0,0,1-.2-.1,9.436,9.436,0,0,1,.3,7c1.3,2.6,2.2,4,1.9,5.6a2.716,2.716,0,0,1-1.7,1.9,14.638,14.638,0,0,1,1.5,5.7.773.773,0,0,1-.7.8H23.8a.547.547,0,0,1-.8-.5" fill="#f4f4f4"/>
            <path id="Path_16495" d="M2.5,149.3a38.021,38.021,0,0,1,2.7-32.7.714.714,0,0,1,1-.3.81.81,0,0,1,.3,1h0a36.745,36.745,0,0,0-2.6,31.5.731.731,0,0,1-.4,1,.731.731,0,0,1-1-.4h0" fill="#f4f4f4"/>
            <path id="Path_16496" d="M4.4,139.8a.669.669,0,0,1-.7-.6A27.293,27.293,0,0,1,5.4,124a.762.762,0,1,1,1.4.6A27.337,27.337,0,0,0,5.2,139a.875.875,0,0,1-.6.9H4.5" fill="#f4f4f4"/>
            <path id="Path_16497" d="M84.4,18.1a5.085,5.085,0,0,1,4.3-2,15.335,15.335,0,0,1,4.7,1.1,7.5,7.5,0,0,1,7.6-1.3c1.3.5,2.4,1.4,3.8,1.4s2.6-.7,4-.9c1.5-.2,3,.5,4.5,1a33.606,33.606,0,0,0,8.9,1.3,12.8,12.8,0,0,0-7.4-1.4c-3.1-1.6-6.7-2-10.1-2.3a47.079,47.079,0,0,0-5.3-.3,56.329,56.329,0,0,0-5.8.3l-5.7.5-4.6.4c-1.8.1-4.4.2-5.8,1.7.3,0,7.2,0,6.9.4" fill="#1c1c1c"/>
            <path id="Path_16498" d="M92,3.4a20.9,20.9,0,0,1,9.2-2A20.4,20.4,0,0,0,88.8,3c-3.7,1.7-7.1,6.3-9,10C83.3,9.5,87.4,5.5,92,3.4" fill="#1c1c1c"/>
            <path id="Path_16499" d="M98.7,47.1a49.692,49.692,0,0,0,6.9,1.7,11.612,11.612,0,0,1,6.2,3.2,18.342,18.342,0,0,1,1.8,3,53.422,53.422,0,0,1,2.8,7.6c0-4.8-.1-9.6-.4-14.4a1.18,1.18,0,0,0-.9-1.4h-.4a93.181,93.181,0,0,0-18.3.2l4.7.8" fill="#1c1c1c"/>
            <path id="Path_16500" d="M99.3,7a1.163,1.163,0,0,0-.2,1,3.121,3.121,0,0,0,.7,1.2.758.758,0,0,0,.1,1c.1,0,.3.2.5.2.7,0,1.3-1,.6-2.1,0-.2-.2-.3-.2-.4a.446.446,0,0,0,.3-.4,1.134,1.134,0,0,0-.4-1.3h0a.731.731,0,0,0-.4-1,1.063,1.063,0,0,0-.8.1,1.151,1.151,0,0,0,0,1.7" fill="#f4f4f4"/>
            <path id="Path_16501" d="M82.4,14.2a1.012,1.012,0,0,0,.7-.4,3.592,3.592,0,0,1,.7-1,.778.778,0,0,0-1.1-1.1h0a4.507,4.507,0,0,0-1,1.4.777.777,0,0,0,.3,1h.3" fill="#f4f4f4"/>
            <path id="Path_16502" d="M116.1,13.7a.752.752,0,1,0,1.5-.1h0a1.489,1.489,0,0,0-.4-.9.711.711,0,1,0-1.1.9h0v.2" fill="#f4f4f4"/>
            <path id="Path_16503" d="M75.6,19.6,96.1,42.1H85a2.654,2.654,0,0,0-1.9,1.1c-1.8,2.5-2.4,3.2-2.5,3.6a2.016,2.016,0,0,0-.3,1.1c-.6,6.7-.2,18.4,0,27.1a2.433,2.433,0,0,0,2.4,2.4c1,0,4,.4,4.2.4a.7.7,0,0,0,0-1.4,38.466,38.466,0,0,1-4.2-.4.9.9,0,0,1-.9-.9h0V72.9c-.3-10.6-.5-19.1,0-24.7h0a.923.923,0,0,1,.9-1c4.5,0,8.7,0,13.4-.1v3.7a.1.1,0,0,0,.1.1h0a13.65,13.65,0,0,0,1.7-1.7A9.1,9.1,0,0,0,100,51h.2V47.2c4.9,0,9.6,0,14,.2a.9.9,0,0,1,.9.9c0,.3.3,3.2.5,6.9a.713.713,0,0,0,.8.7h0a.773.773,0,0,0,.7-.8h0c0-2.4-.3-4.4-.5-6.9a2.136,2.136,0,0,0-.8-1.7c0-.3,0-.2-2.5-3.3a2.463,2.463,0,0,0-1.9-.9H101.2l21.3-22.2a.715.715,0,0,0,.5-.9c-1.8-5.7-6.5-13.5-13.6-16.7A25.406,25.406,0,0,0,89,2.4C81.9,5.5,77.2,13.3,75.3,19v.3a1.7,1.7,0,0,0,.1.7M94.5,2a9.079,9.079,0,0,1,2.3-.3,38.649,38.649,0,0,0-4,13.7,8.262,8.262,0,0,0-7.5,0C86.6,10.5,89.9,4.7,94.5,2m14.1,1.4c3,3.4,4.8,8.6,5.4,12.8a8.614,8.614,0,0,0-8.5-.6,33.581,33.581,0,0,0-2-13.7,22.131,22.131,0,0,1,5,1.5h0m-3.2,14a7.735,7.735,0,0,1,4.9-1.1,6.784,6.784,0,0,1,4.2,2.1.668.668,0,0,0,1,0c1.7-1.2,4.2-.3,5.9.8L100.7,40.7a66.2,66.2,0,0,0,4.6-23.3M98.5,42.2H98a131.027,131.027,0,0,1-3.3-25.5,7.421,7.421,0,0,1,5-1.5,8.766,8.766,0,0,1,4.1,1.7,63.957,63.957,0,0,1-5.3,25.2M83.3,45.6a16.965,16.965,0,0,0,1-1.4,1.012,1.012,0,0,1,.7-.4H96.5c-.1.5-.2,1.1-.3,1.7-1.1,0-8.5,0-12.9.1m28.3-2.1a.908.908,0,0,1,.7.3l1.3,1.7c-4.3-.1-8.8-.2-13.5-.1-.1-.5-.3-1.1-.4-1.6l.2-.2h11.7M121,17.4a7.254,7.254,0,0,0-5.4-.7,30.266,30.266,0,0,0-4-11.6A29.254,29.254,0,0,1,121,17.4M101.8,1.6A29.126,29.126,0,0,1,104,15.3a9.418,9.418,0,0,0-4.2-1.6A9,9,0,0,0,94.3,15,37.938,37.938,0,0,1,98.5,1.5c1.1,0,2.2,0,3.2.1M89.9,3.4c.3-.1.5-.2.8-.3a26.818,26.818,0,0,0-7,12.9,7.11,7.11,0,0,0-5.7.5c2.3-5.2,6.6-10.7,11.9-13M84,17.7a.761.761,0,0,0,.9-.1,6.5,6.5,0,0,1,8.3-.4h0A130.585,130.585,0,0,0,96,39.7L77.1,18.9A5.8,5.8,0,0,1,84,17.6" fill="#f4f4f4"/>
            <path id="Path_16504" d="M90.2,77.9c3.2.2,6.2.3,9.1.3a135.513,135.513,0,0,0,15.1-.8,2.5,2.5,0,0,0,2.4-2.4,149.5,149.5,0,0,0,.5-17.7.752.752,0,1,0-1.5.1h0a147.217,147.217,0,0,1-.5,17.6h0a.923.923,0,0,1-.9,1h0a148.032,148.032,0,0,1-24,.5.752.752,0,0,0-.1,1.5" fill="#f4f4f4"/>
            <path id="Path_16505" d="M83.9,55.9a.731.731,0,0,0,1-.4,1.625,1.625,0,0,0-.3-1.5s-.2-.2-.2-.3c0,0-.1-.2-.2-.2a.446.446,0,0,0,.3-.4,1.237,1.237,0,0,0-.4-1.4.31.31,0,0,1-.2-.1h0l.2-.2a1.794,1.794,0,0,0,.5-.7,1.479,1.479,0,0,0-.6-1.8h-.1a.653.653,0,0,0-.9.5,1.077,1.077,0,0,0,.2.8s-.1.2-.2.2l-.3.3a1.5,1.5,0,0,0-.1,1.8c0,.1.2.2.3.3a1.36,1.36,0,0,0,0,1.5,2.092,2.092,0,0,0,.4.6l.2.2v.1c-.1.4,0,.8.4.9" fill="#f4f4f4"/>
            <path id="Path_16506" d="M114.4,60a4.477,4.477,0,0,0,.4-2,.752.752,0,1,0-1.5.1,2.953,2.953,0,0,1-.2,1.3.762.762,0,0,0,1.4.6" fill="#f4f4f4"/>
            <path id="Path_16507" d="M109.1,55.5h-8.9a1.1,1.1,0,0,0,0,2.2h8.9a1.1,1.1,0,0,0,0-2.2" fill="#f4f4f4"/>
            <path id="Path_16508" d="M100.3,61a1.11,1.11,0,0,0,1.1,1.1h8.9a1.1,1.1,0,0,0,0-2.2h-8.9a1.11,1.11,0,0,0-1.1,1.1h0" fill="#f4f4f4"/>
            <path id="Path_16509" d="M89.1,72.1a.7.7,0,0,0,0,1.4h3.4a.7.7,0,0,0,0-1.4h-.8V68.6c2.3-.4,4-2.7,4-5.5v-.8a1.3,1.3,0,0,0-1.3-1.2H87.7a1.305,1.305,0,0,0-1.3,1.2v.8a5.469,5.469,0,0,0,4,5.5v3.5H89.1Z" fill="#fc6e20"/>
            <path id="Path_16510" d="M182.2,68.9l6.7-2.8c0,2.5,0,5.1.1,7.6-.9-.2-1.8-2.4-2.7-3.1-.8-.6-3-2.1-4.1-1.6" fill="#1c1c1c"/>
            <path id="Path_16511" d="M221.3,149.4a.974.974,0,0,0,.8,1h0l9.3.7a.906.906,0,0,0,.2-1.8l-9.3-.7a.974.974,0,0,0-1,.8" fill="#f4f4f4"/>
            <path id="Path_16512" d="M167.8,141.6a.974.974,0,0,0-1,.8.9.9,0,0,0,.8,1c53.2,6.4,50.8,6.2,50.9,6.2a.9.9,0,0,0,.9-.9.876.876,0,0,0-.8-.9l-50.8-6.1Z" fill="#f4f4f4"/>
            <path id="Path_16513" d="M178.7,44.4l-21.8,1a3.885,3.885,0,0,0-3.8,3.9l-.2,18.6h1.8l.2-18.6a2.112,2.112,0,0,1,2.1-2.1l21.8-1a.9.9,0,0,0,0-1.8" fill="#f4f4f4"/>
            <path id="Path_16514" d="M223.6,96.3a.906.906,0,1,0-1.8.2h0a96.134,96.134,0,0,1,.2,12,127.094,127.094,0,0,0-22.5-6.9c-.2-2.1-.2-6.5-.4-7l.9-.4a.894.894,0,0,0-.8-1.6L196.1,94a.785.785,0,0,0-.4,1.2.891.891,0,0,0,.8.5,1.33,1.33,0,0,0,.8-.3c.2,2.4.2,4.7.4,7a.849.849,0,0,0,.7.8,122.836,122.836,0,0,1,19.9,5.8c-.4,2.1-.9,4.3-1.5,6.4,0,0-.1.3-.2.7,0,1.6,0,3.2-.1,4.9v1.8a4.973,4.973,0,0,1-.3,1.6c-.1,1-.2,2-.4,3-7,3.1-15.6,1.1-23.4-.1-7.8-1.3-15.8-3.1-23.6-2.6.3-1.5.6-3,1-4.5a9.363,9.363,0,0,0-1.6-.4h-.1a50.439,50.439,0,0,0-1.8,16.4.9.9,0,0,0,.9.9h.3c6.9.9,14.5,1.6,22.2,1.9l.2-4.7a.645.645,0,0,1,.6-.6h0a.645.645,0,0,1,.6.6h0l-.2,4.7c8.1.3,16.3.3,23.6-.1a.948.948,0,0,0,1.3-.2c0-.1.1-.2.2-.4a166.109,166.109,0,0,0,2.7-22.2c.6-2.1,1.1-4.2,1.5-6.4a24.424,24.424,0,0,1,2.4,1,.883.883,0,0,0,1.2-.5v-.3a86.946,86.946,0,0,0-.2-13.5m-50.7,32.7c-1.8.6-1.7,1.1-1.5,2a1.268,1.268,0,0,0,.1.6,1.7,1.7,0,0,1-1.3,2h0a.56.56,0,0,1-.6-.5.752.752,0,0,1,.5-.7c.1,0,.3-.3.2-.7v-.5a2.228,2.228,0,0,1,0-1.4c.3-1.2,1.7-1.7,2.3-1.9a.6.6,0,0,1,.8.4h0a.6.6,0,0,1-.4.8m37.6,3.4-.3,3.1a.56.56,0,0,1-.6.5h0a.545.545,0,0,1-.5-.7l.3-3.1a.545.545,0,0,1,.7-.5.56.56,0,0,1,.5.6m2.3-.3-.3,2.2a.56.56,0,0,1-.6.5h0a.545.545,0,0,1-.5-.7h0l.3-2.2a.545.545,0,0,1,.7-.5c.4.1.6.3.5.7h0" fill="#f4f4f4"/>
            <path id="Path_16515" d="M181.3,43.7a33.334,33.334,0,0,0,.2,12.2,8.043,8.043,0,0,0,2.3,4.9,6.046,6.046,0,0,0,4.3,1.4l-.3,3.3h-.1a47.043,47.043,0,0,0-11.9,6.4.93.93,0,0,0,1.1,1.5h0a44.5,44.5,0,0,1,10.9-6c.2,2.3.6,4.9.6,7.1a.9.9,0,0,0,.9.9.735.735,0,0,0,.6-.2c3.5-2.8,8-5.9,11.7-8.8a1.217,1.217,0,0,1,1.6,0c3.9,2.8,9.8,4,12.8,7.1a13.912,13.912,0,0,1,2.7,5.6,101.105,101.105,0,0,1,2.7,13.3.846.846,0,0,0,1,.8.9.9,0,0,0,.8-1h0a87.41,87.41,0,0,0-2.8-13.5,14.908,14.908,0,0,0-3.1-6.3c-3.3-3.5-9.3-4.6-13-7.3a3.308,3.308,0,0,0-3.8,0c-3.3,2.6-7,5.1-10.3,7.7-.2-2.1-.6-4.4-.6-6.4l.5-4.5a6.437,6.437,0,0,0,2.5-1.5,1.051,1.051,0,0,0,0-1.3.934.934,0,0,0-1.3,0h0a4.705,4.705,0,0,1-6.1.3,6.311,6.311,0,0,1-1.7-3.9,29.273,29.273,0,0,1,0-12.5,3.805,3.805,0,0,0,1.3-.9,3.956,3.956,0,0,0,1.5,1,6.349,6.349,0,0,0,2.7.4h5.5a14.934,14.934,0,0,0,4,7.4.52.52,0,0,0,.4.2.837.837,0,0,0,1.2-.3,1.083,1.083,0,0,0,0-1.1,1.743,1.743,0,0,1,.6-1.2c.2-.2.4-.2.7-.3a2.3,2.3,0,0,1,1.8,1.2,3.072,3.072,0,0,1-.2,2.8c-.5.8-.8,1.3-1.4,1.5a.876.876,0,0,0-.5,1c.1.8.3,1.4.4,1.9a11.23,11.23,0,0,1,.2,4.1.906.906,0,0,0,1.8.2h0A15.89,15.89,0,0,0,203,55a6.845,6.845,0,0,0,1.7-2.1,4.367,4.367,0,0,0-1-5.8,16.088,16.088,0,0,0,.7-3.7,7.482,7.482,0,0,0-3.9-7.1,4.951,4.951,0,0,1,1.3-.4.906.906,0,1,0-.2-1.8h0a6.07,6.07,0,0,0-1.8.5V33.3a.817.817,0,0,0-.8-.9h0a.9.9,0,0,0-.9.9v1.8c-2.2-.6-5.1.6-6.2-.6a12.9,12.9,0,0,0-6.7-4.6,8.765,8.765,0,0,0-8.3,2.4,6.937,6.937,0,0,0-.6,8.6,6.076,6.076,0,0,0,5.6,2.3" fill="#f4f4f4"/>
            <path id="Path_16516" d="M185.8,48a1.008,1.008,0,0,0-1.1.7,17.821,17.821,0,0,0-.3,4.6,2.732,2.732,0,0,0,.8,1.9,1.75,1.75,0,0,0,2.5-.1,1.38,1.38,0,0,0,.3-.4.883.883,0,0,0-.5-1.2.905.905,0,0,0-1,.3h0l-.2-.6a19.806,19.806,0,0,1,.3-4.2,1.008,1.008,0,0,0-.7-1.1" fill="#f4f4f4"/>
            <path id="Path_16517" d="M186.6,58.4a4.02,4.02,0,0,0,2.6-.8.922.922,0,1,0-1.2-1.4,2.01,2.01,0,0,1-1.3.4.906.906,0,1,0-.2,1.8h0" fill="#f4f4f4"/>
            <path id="Path_16518" d="M216.5,90.2a.806.806,0,0,0-.9-.3c-.2,0-.3-.3-.4-.5V87.6a3.185,3.185,0,0,0-.7-2.8.919.919,0,0,0-1.3,1.3h0a1.721,1.721,0,0,1,.2,1.2v.4a4.5,4.5,0,0,0,0,2,2.76,2.76,0,0,0,1.2,1.6h0a11.628,11.628,0,0,0-.3,4.9.808.808,0,0,0,.9.7h.2a.824.824,0,0,0,.7-1,9.465,9.465,0,0,1,.5-5,.959.959,0,0,0-.2-.9" fill="#f4f4f4"/>
            <path id="Path_16519" d="M202.1,68.9a5.865,5.865,0,0,0-3.3,2.9c-1.7,2.5-1.8,1.7-2.9,2a3.573,3.573,0,0,0-2,2c-.3.5-.6.7-.7.7a.945.945,0,0,0-1.1.6h0c-.3,1.3,2,1.9,3.4-.4.9-1.5.8-1.1,1.8-1.3,2.6-.5,3.3-4.3,5.4-4.8a.8.8,0,0,0,.6-1.1c-.2-.5-.6-.8-1.1-.6h0" fill="#f4f4f4"/>
            <path id="Path_16520" d="M248.1,50.9a2.067,2.067,0,0,0-.5-2.8h0a2.041,2.041,0,0,0-2.1,3.5,1.954,1.954,0,0,0,2.7-.6" fill="#f4f4f4"/>
            <path id="Path_16521" d="M242.3,51a2.067,2.067,0,0,0-.5-2.8h0a2.041,2.041,0,0,0-2.1,3.5,1.954,1.954,0,0,0,2.7-.6" fill="#f4f4f4"/>
            <path id="Path_16522" d="M236.1,50.9a2.067,2.067,0,0,0-.5-2.8h0a2.041,2.041,0,0,0-2.1,3.5,1.954,1.954,0,0,0,2.7-.6" fill="#f4f4f4"/>
            <path id="Path_16523" d="M142.4,145a.891.891,0,0,0,.8.5h0a65.44,65.44,0,0,0,15.3-2.7.886.886,0,1,0-.5-1.7h0a62.056,62.056,0,0,1-12.7,2.5,54.622,54.622,0,0,0,8.5-14.1v-5.3a.817.817,0,0,0-.8-.9.9.9,0,0,0-.9.9V129a56.919,56.919,0,0,1-9.6,15.1,1.232,1.232,0,0,0-.2,1" fill="#f4f4f4"/>
            <path id="Path_16524" d="M256.1,72.6l1.3-26.7a2.135,2.135,0,0,0-2.1-2.2h-.1L208.5,45a.9.9,0,0,1-.9-.9h0a.9.9,0,0,1,.9-.9l46.7-1.3a4.08,4.08,0,0,1,4.1,3.9v.3L258,73.3l-.7,20.5L255,149.7a3.87,3.87,0,0,1-4.1,3.8h-.3l-14.9-1.7a.906.906,0,1,1,.2-1.8l14.9,1.7a2.154,2.154,0,0,0,2.4-1.9v-.2l2.2-55.1.7-21.8Z" fill="#f4f4f4"/>
            <path id="Path_16525" d="M138.1,90.2c-2.3,1.4-3.8,3.8-5.2,6.2a97.612,97.612,0,0,0,3.7-11.6c-.1.4,5.4,2.5,6,2.7a32.808,32.808,0,0,0,6.1,1.8c-3.3-1-7.6-.9-10.6,1" fill="#1c1c1c"/>
            <g id="Group_17708" opacity="0.2">
              <g id="Group_17707">
                <g id="Group_17954" data-name="Group 17954" clip-path="url(#clip-path-7)">
                  <g id="Group_17706">
                    <path id="Path_16526" d="M210.1,127.6c-1.6.4-3.2-.3-4.7-.9a72.987,72.987,0,0,0-9.1-2.7l-17.9-4.4c11.1-1.5,18.4,4.1,27.9,5.1,1.9.2,4.2.8,5.9-.2,1.7-.9,3.3-2.9,2.9-5-1.2,2.9-1.6,7-5.1,8" fill="#fc6e20"/>
                  </g>
                </g>
              </g>
            </g>
            <path id="Path_16527" d="M196.8,111c1.1,0,2.5,0,3.2-.9a3.613,3.613,0,0,0,.3-2.7l-.4-3c-.1-.7,0-1.6.5-1.9a2.879,2.879,0,0,1,1.3.1l2.6,1a1.62,1.62,0,0,0-1.7,1c-.1.3-.7.3-.6.6l.2,2.7v1.9a2.094,2.094,0,0,1-1.1,1.5,4.145,4.145,0,0,1-1.6.2l-4.3-.2,1.7-.4Z" fill="#1c1c1c"/>
            <path id="Path_16528" d="M172.6,106.2l-3.8-1.2a27.787,27.787,0,0,0,3.8,1.2h0" fill="#1c1c1c"/>
            <path id="Path_16529" d="M162.5,106.6c-.1,1.3-.3,2.7-.4,4a7.387,7.387,0,0,0,0,2.1,5.4,5.4,0,0,0,2.3,3.4,4.823,4.823,0,0,0,2.6,1.2c-.4-.3-3.6-2.4-3.3-3l.2-.3a4.347,4.347,0,0,0,.4-.7c-.2,0-.3-.1-.4-.3a.755.755,0,0,1-.1-.8c0-.2,0-.4.2-.5.1-.3.2-.5.3-.8v-.7a3.178,3.178,0,0,0-.3-.9,2.464,2.464,0,0,1-.2-1.7.883.883,0,0,1,1.2-.5h.1c-.5-.7-1-1.7-.5-2.5.6-.8,1.8-.6,2.8-.3a10.927,10.927,0,0,0,1.7.5c-.7-.3-1.4-.6-2-.9a3.415,3.415,0,0,0-2.4-.7,2.258,2.258,0,0,0-1.4,1.3,6.456,6.456,0,0,0-.4,1.9" fill="#1c1c1c"/>
            <path id="Path_16530" d="M220.3,108.2a119.4,119.4,0,0,0-21.1-6.4v-.2a3.582,3.582,0,0,1-1.1.4h-.4v.5a.858.858,0,0,0,.6.7c1.3.2,2.5.5,3.8.8-.1,1.6-.5,3.3-.5,4.6a2.479,2.479,0,0,1-1.4,2.5c-.7.2-.4.2-16.1-2.7a8.385,8.385,0,0,1-4.2-2.1,40.31,40.31,0,0,0-3.2-2.6,8.32,8.32,0,0,0-1.8-1.3c.5-1.5.8-3.7,1.3-5a1.1,1.1,0,0,0,0-.8h0c-.1,0-.2-.2-.3-.2h-.6c-.2,0-.4-.2-.6-.3-.6-.2-1.2-.4-1.9-.6.3-.5,1.2-5.2,4.7-15.3a.74.74,0,0,0-.4-.9h0l-.9-.8-.3-.3c-2.7-1.6-3.5-1.5-21.4-7.1h0a.715.715,0,0,0-.9.5c0,.2,0,.5.1.6-.4,1.4-.8,2.8-1.3,4.2-1.2,3.6-2.4,7.3-3.6,10.8a31.022,31.022,0,0,0-5.1-6.8,1.991,1.991,0,0,0-1.2-.8,1.679,1.679,0,0,0-1.9.4,1.4,1.4,0,0,0-.2,1.4,20.483,20.483,0,0,0,.5,2.4,44.277,44.277,0,0,0-7.1-3.9,2.354,2.354,0,0,0-2.3,0,1.552,1.552,0,0,0-.3,2.1c-1.8,0-2.7,1.7-1.3,3.3-1.9.7-1.6,2.5-.3,3.6-.5.5-.5,2.6,1.3,4.2a9.062,9.062,0,0,0,1.6,1.1l-1.1,3.7c-1.4,4.7-2.8,9.6-4.2,14.5a.7.7,0,0,0,.4.9c2.4,1,4.9,2,7.4,3h0a.715.715,0,0,0,.9-.5c.1-.4,0-.8-.4-.9-2.3-.9-4.5-1.8-6.7-2.7,1.3-4.7,2.7-9.4,4-13.9.1-.4,2.5-8.5,3.6-12.7l8.6,2.8-3.2,10.9,5.8,1.7,3.1-10.8L161,93.5c4.8,1.5,10.2,3,13.3,4-.4,1.4-.8,3.7-1.2,4.8a1.4,1.4,0,0,0-1,1.7v.2c-.2.7-.5,1.4-.6,1.7-1.8-.5-3.7-.9-5.5-1.5a3.312,3.312,0,0,0-2.4,0,1.76,1.76,0,0,0-.3,2.5h0a1.789,1.789,0,0,0-.9,1,2.619,2.619,0,0,0,.4,2.1,2.1,2.1,0,0,0,0,2.6,1.641,1.641,0,0,0-.2,2,2.836,2.836,0,0,0,.9,1,13.409,13.409,0,0,0,4,2.3c-.5,1.8-1,3.4-1.5,5.1-6.7-1-10.2-1.4-14.1-2.4,2.5-8.1,5.3-15.9,7.8-23.9a.653.653,0,0,0-.5-.9h0a.653.653,0,0,0-.9.5h0c-2.5,8-5.2,15.8-7.8,24-4.3-1.5-7.5-2.6-11.6-4.1a.819.819,0,0,0-1,.4.731.731,0,0,0,.4,1h0c4.4,1.6,7.6,2.8,12.4,4.4h0c4.4,1.1,8,1.5,15.6,2.7a.792.792,0,0,0,.8-.5c.5-1.8,1-3.6,1.6-5.6.2,0,.3.1.5.2h1.2c6.9,1.6,11.6.4,16.2,1.5a12.091,12.091,0,0,1,1.8.5.762.762,0,0,0,.6-1.4h0c-2.8-1.1-6.1-1.2-9.1-1.2-5.4,0-11.8-.6-15.9-4-.8-.6-.5-.8-.5-.8a.31.31,0,0,0,.2-.1,36.272,36.272,0,0,0,9,3.4.875.875,0,0,0,.9-.6h0c0-.4-.1-.8-.5-.9h0a31.483,31.483,0,0,1-8.8-3.4,1.555,1.555,0,0,1-.8-.6v-.5l.1-.1a49.725,49.725,0,0,0,9,3.6h0a.728.728,0,0,0,.4-1.4,55.2,55.2,0,0,1-8.3-3.3,3.592,3.592,0,0,1-1-.7.618.618,0,0,1-.2-.7.908.908,0,0,1,.7-.3h.4a69.181,69.181,0,0,0,8.6,3.3.728.728,0,0,0,.4-1.4,52.074,52.074,0,0,1-8.3-3.1c-.4-.2-1.4-.7-1.3-1.2,0-.2.9,0,1.1,0,3.2,1,6.7,1.7,9.9,2.8a.653.653,0,0,0,.9-.5,1.7,1.7,0,0,0-.1-.7c-1-1.2-1.9-2.4-2.8-3.6a2.22,2.22,0,0,1,1.1.5c1.4,1.1,2.7,2.1,3.9,3.2a9.6,9.6,0,0,0,4.9,2.5l11.4,2.1c3.1.6,4.2.9,5.3.5,1.8-.5,2.4-2.4,2.4-4,0-1.1.3-2.6.4-4.2a114.2,114.2,0,0,1,13.7,4.3,57.937,57.937,0,0,1-3.8,12.9c-1.3,3-2.5,3.3-5.8,2.7a73.761,73.761,0,0,1-13.8-3.6.819.819,0,0,0-1,.4.731.731,0,0,0,.4,1,74,74,0,0,0,14,3.7,8.011,8.011,0,0,0,4.6-.1c1.8-.8,2.6-2.9,3.4-4.9v.2c.2-.9.5-1.9.8-2.8a8.8,8.8,0,0,1,.5-1.5c.2-.5.4-.9.6-1.4.6-2,1-4,1.4-6l2.4.9a.778.778,0,0,0,.8-.2,12.878,12.878,0,0,1-1.6-1.7M133.3,92.6a3.915,3.915,0,0,1-1-.8,2.99,2.99,0,0,1-1.1-2.3l2.5,1.6c-.1.5-.3,1-.4,1.5m.8-3a25.767,25.767,0,0,1-3.5-2.3.908.908,0,0,1-.3-.7,2.768,2.768,0,0,1,1.3-.3,18.723,18.723,0,0,0,2.9,2,5.638,5.638,0,0,1-.4,1.2m.8-2.6a17.683,17.683,0,0,1-2.2-1.6c0-.1-.2-.2-.3-.2-.3-.2-1.5-1.2-1.4-1.6,0-.1.4-.3.8-.2a4.245,4.245,0,0,1,1.9.6l1.7,1.4c-.2.6-.3,1.1-.5,1.7m1.7-3.2h-.5c-2.8-2.3-3.4-2.7-3.3-3h.4a32.2,32.2,0,0,1,8.1,4.5Zm6.9,2.2a23.679,23.679,0,0,1-1.3-5.4c.3,0,.6.3.8.5a31.641,31.641,0,0,1,4.7,6.2l-4.2-1.4Zm25-8.1c-.7,2.1-1.6,4.5-2.4,6.9s-1.7,4.8-2.4,6.9c0,.3-.4.4-.6.3h0c-.3,0-.4-.4-.3-.6h0c.7-2.1,1.6-4.5,2.4-6.9s1.7-4.8,2.4-6.9c0-.3.4-.4.6-.3.3,0,.4.4.3.6h0m5.7,28.5a2.354,2.354,0,0,1-.8-.2l.2-.5.6.7" fill="#f4f4f4"/>
            <path id="Path_16531" d="M177.5,222.1H160.3a.7.7,0,1,0,0,1.4h17.2a.7.7,0,1,0,0-1.4" fill="#f4f4f4"/>
            <path id="Path_16532" d="M221.4,215a.684.684,0,0,0-.7-.7h-6.4a.752.752,0,0,0-.1,1.5h6.4a.684.684,0,0,0,.7-.7" fill="#f4f4f4"/>
            <path id="Path_16533" d="M215.2,219h6.1a.7.7,0,1,0,0-1.4h-6.1a.7.7,0,0,0,0,1.4h0" fill="#f4f4f4"/>
            <path id="Path_16534" d="M225,203.7a.773.773,0,0,0-.7.8,1.431,1.431,0,0,1-.3,1.1.751.751,0,0,0,.2,1,.775.775,0,0,0,1-.2,3.014,3.014,0,0,0,.5-2.1.773.773,0,0,0-.8-.7" fill="#f4f4f4"/>
            <path id="Path_16535" d="M220.4,187.4h3.5a.7.7,0,1,0,0-1.4h-3.5a.7.7,0,1,0,0,1.4h0" fill="#f4f4f4"/>
            <path id="Path_16536" d="M220.9,188.2a.7.7,0,1,0,0,1.4h3.3a.7.7,0,0,0,0-1.4Z" fill="#f4f4f4"/>
            <path id="Path_16537" d="M226.1,181.2a1.012,1.012,0,0,0,.7-.4,4.013,4.013,0,0,0,.3-1.5.752.752,0,1,0-1.5.1h0a1.2,1.2,0,0,1-.2.8.777.777,0,0,0,.3,1h.3" fill="#f4f4f4"/>
            <path id="Path_16538" d="M241.6,221.8H228.4a3.179,3.179,0,0,0,.3-.9,89.037,89.037,0,0,0,.7-17.1.752.752,0,1,0-1.5.1h0a95.635,95.635,0,0,1-.7,16.9v.1c0,.4-.7.8-1.6.8-7.2.5-13.6.7-20,.7.9-11.3.7-20.6-.7-29.2,6.2-.2,4.1,0,8.8,0,.1,2.5.2,5.1.3,7.6,0,.4.5.7.7.3.8-1.1,1.5-2.3,2.3-3.4h.2c.7,1.2,1.3,2.3,1.9,3.6.2.4.7.3.8-.2v-7.9c1.9,0,3.8.2,5.6.3.9,0,1.5.4,1.5.8s.3,2.4.6,7.6a.752.752,0,0,0,1.5-.1h0c0-1.6-.3-4.7-.6-7.6a2.344,2.344,0,0,0-1.1-1.8,2.087,2.087,0,0,0,1.1-1.6,96.254,96.254,0,0,0,.4-12,.752.752,0,0,0-.5-.7.67.67,0,0,0,.4-.7c0-1.1-.2-3.3-.3-5.3a1.907,1.907,0,0,0-2-1.8,100.911,100.911,0,0,0-23.3,1,1.95,1.95,0,0,0-1.9,1.8,172.214,172.214,0,0,0,0,17.7,1.689,1.689,0,0,0,.3,1c-5.8.3-11.9.8-18.7,1.5-1.8.2-2.9,1.1-3,2.3-.8,6.2-.3,15.4,0,25.2,0,1.3,1.3,2.3,3,2.3,1.6.1,5.5.3,5.8.3a.7.7,0,0,0,0-1.4c-4-.2-5.7-.3-5.9-.3-.9,0-1.5-.4-1.5-.9-.3-9.5-.8-19,0-25.1v-.1c0-.4.7-.8,1.6-.9,7.4-.8,14-1.3,20.2-1.6,1.4,8.6,1.6,17.9.7,29.2-4,0-8.1,0-12.3-.3a.752.752,0,1,0-.1,1.5h0a306.162,306.162,0,0,0,33.2-.4c.3.1-.7,0,16.6,0a.7.7,0,0,0,0-1.4m-21.1-50.2c0,1.7.1,3.5.2,5.2,0,.3.3.5.4.2.4-.7.8-1.6,1.3-2.4h.1c.3.7.7,1.7,1,2.5.1.3.4.2.4-.1v-5.4c1,0,2,.1,3,.2h0a.458.458,0,0,1,.5.4c0,.2.2,1.7.3,5.3a.752.752,0,0,0,.5.7.67.67,0,0,0-.4.7,94.66,94.66,0,0,1-.4,11.9h0a.472.472,0,0,1-.5.5c-.3,0-3.4.3-8,.5h-2.6a102.87,102.87,0,0,0-.4-20h4.4m-16.4,19.5h0c-.2,0-.5-.1-.5-.4a170.956,170.956,0,0,1,0-17.6h0c0-.3.3-.4.6-.5,3.9-.5,7.4-.9,10.6-1.1a110.3,110.3,0,0,1,.4,19.9c-9.5,0-2.9.3-11-.4" fill="#f4f4f4"/>
            <path id="Path_16539" d="M247.3,220c-.4-.2-.4-.7-.2-1.1h0a54.891,54.891,0,0,0,7-43.4.728.728,0,1,1,1.4-.4h0a56.521,56.521,0,0,1-7.2,44.6c-.2.4-.7.4-1.1.2" fill="#f4f4f4"/>
            <path id="Path_16540" d="M261.3,207.6a.825.825,0,0,1-.5-1,44.982,44.982,0,0,0,2.2-21.8.765.765,0,1,1,1.5-.3h0v.1a45.342,45.342,0,0,1-2.3,22.5.825.825,0,0,1-1,.5" fill="#f4f4f4"/>
            <path id="Path_16541" d="M121.8,140.9c-3.8-.4-11-1-11-1h-1.2l-15.2-.8H89.5a.675.675,0,0,0-.6.4c-1.9,5.8-5.3,17.7-5.3,17.7l-.4,1.3-1.5,6.3-.5-.2v.4a2.769,2.769,0,0,0,.1.9h0c0,.1.6.3.6.3h.3c10,0,21.2,0,31.2-1.3a.664.664,0,0,0,.5-.4c2.5-7.6,5.3-15.3,8.5-22.7a.653.653,0,0,0-.5-.9h-.2m-20.5,13.3a2.894,2.894,0,0,1-1.4-3.2,3.194,3.194,0,0,1,2.9-2.8c.6,0,1.1.6,1.4,1.5.7,2.3-1.2,5-2.9,4.4m15.4-8.1-3.7,9.1c0,.2-.2.3-.4.2-.3,0-.5-.3-.4-.5h0v-.1l3.7-9.1c0-.2.3-.3.5-.2h0a.713.713,0,0,1,.3.6" fill="#f4f4f4"/>
            <path id="Path_16542" d="M83,165.8h0l-15.1-.4c-.2,0-.4,0-.5-.3l-.2-.2a.633.633,0,0,1,.1-.9c.1,0,.2-.1.4-.1l13.6-.4a.6.6,0,0,1,.4.1l1.6,1.1a.651.651,0,0,1,.2.9.55.55,0,0,1-.5.3" fill="#f4f4f4"/>
          </g>
        </g>
      </g>
    </g>
  </g>
</svg>
